G04 MADE WITH FRITZING*
G04 WWW.FRITZING.ORG*
G04 DOUBLE SIDED*
G04 HOLES PLATED*
G04 CONTOUR ON CENTER OF CONTOUR VECTOR*
%ASAXBY*%
%FSLAX23Y23*%
%MOIN*%
%OFA0B0*%
%SFA1.0B1.0*%
%ADD10C,0.075278*%
%ADD11C,0.085000*%
%ADD12C,0.084000*%
%ADD13C,0.088861*%
%ADD14C,0.074972*%
%ADD15C,0.088833*%
%ADD16C,0.108425*%
%ADD17R,0.085000X0.085000*%
%LNMASK0*%
G90*
G70*
G54D10*
X2145Y162D03*
X2245Y162D03*
X2345Y162D03*
X2445Y162D03*
X2545Y162D03*
X1685Y2062D03*
X1585Y2062D03*
X1485Y2062D03*
X1385Y2062D03*
X1285Y2062D03*
X1185Y2062D03*
X1085Y2062D03*
X985Y2062D03*
X885Y2062D03*
X785Y2062D03*
X2545Y2062D03*
X2445Y2062D03*
X2345Y2062D03*
X2245Y2062D03*
X2145Y2062D03*
X2045Y2062D03*
X1945Y2062D03*
X1845Y2062D03*
X1245Y162D03*
X1145Y162D03*
X1345Y162D03*
X1445Y162D03*
X1545Y162D03*
X1645Y162D03*
X1745Y162D03*
X1845Y162D03*
X2045Y162D03*
G54D11*
X2301Y1262D03*
X2045Y1262D03*
X2301Y1439D03*
X2045Y1439D03*
G54D12*
X1388Y1262D03*
X1545Y1262D03*
G54D11*
X2233Y760D03*
X2445Y662D03*
X2233Y563D03*
G54D13*
X145Y462D03*
G54D14*
X145Y562D03*
G54D13*
X145Y662D03*
X145Y762D03*
X145Y862D03*
X145Y962D03*
G54D15*
X1535Y578D03*
X1535Y678D03*
X1535Y778D03*
X1535Y878D03*
G54D11*
X545Y1562D03*
X945Y1562D03*
X545Y1262D03*
X945Y1262D03*
G54D16*
X1945Y1762D03*
X945Y262D03*
X745Y262D03*
G54D17*
X2233Y760D03*
G04 End of Mask0*
M02*