G04 MADE WITH FRITZING*
G04 WWW.FRITZING.ORG*
G04 DOUBLE SIDED*
G04 HOLES PLATED*
G04 CONTOUR ON CENTER OF CONTOUR VECTOR*
%ASAXBY*%
%FSLAX23Y23*%
%MOIN*%
%OFA0B0*%
%SFA1.0B1.0*%
%ADD10C,0.075000*%
%ADD11C,0.065278*%
%ADD12C,0.074000*%
%ADD13C,0.078861*%
%ADD14C,0.064972*%
%ADD15C,0.078833*%
%ADD16C,0.098425*%
%ADD17R,0.075000X0.075000*%
%ADD18C,0.024000*%
%ADD19C,0.000100*%
%LNCOPPER0*%
G90*
G70*
G54D10*
X2628Y2118D03*
G54D11*
X2145Y162D03*
X2245Y162D03*
X2345Y162D03*
X2445Y162D03*
X2545Y162D03*
X1685Y2062D03*
X1585Y2062D03*
X1485Y2062D03*
X1385Y2062D03*
X1285Y2062D03*
X1185Y2062D03*
X1085Y2062D03*
X985Y2062D03*
X885Y2062D03*
X785Y2062D03*
X2545Y2062D03*
X2445Y2062D03*
X2345Y2062D03*
X2245Y2062D03*
X2145Y2062D03*
X2045Y2062D03*
X1945Y2062D03*
X1845Y2062D03*
X1245Y162D03*
X1145Y162D03*
X1345Y162D03*
X1445Y162D03*
X1545Y162D03*
X1645Y162D03*
X1745Y162D03*
X1845Y162D03*
X2045Y162D03*
G54D10*
X2301Y1262D03*
X2045Y1262D03*
X2301Y1439D03*
X2045Y1439D03*
G54D12*
X1388Y1262D03*
X1545Y1262D03*
G54D10*
X2233Y760D03*
X2445Y662D03*
X2233Y563D03*
G54D13*
X145Y462D03*
G54D14*
X145Y562D03*
G54D13*
X145Y662D03*
X145Y762D03*
X145Y862D03*
X145Y962D03*
G54D15*
X1535Y578D03*
X1535Y678D03*
X1535Y778D03*
X1535Y878D03*
G54D10*
X545Y1562D03*
X945Y1562D03*
X545Y1262D03*
X945Y1262D03*
G54D16*
X1945Y1762D03*
X945Y262D03*
X745Y262D03*
G54D17*
X2233Y760D03*
G54D18*
X1847Y961D02*
X2138Y181D01*
D02*
X1344Y1063D02*
X1847Y961D01*
D02*
X1344Y1261D02*
X1344Y1063D01*
D02*
X1370Y1261D02*
X1344Y1261D01*
D02*
X2057Y146D02*
X2097Y90D01*
D02*
X2097Y90D02*
X2601Y90D01*
D02*
X2601Y90D02*
X2601Y210D01*
D02*
X2601Y210D02*
X2451Y645D01*
D02*
X1563Y1262D02*
X2028Y1262D01*
D02*
X1548Y182D02*
X1605Y618D01*
D02*
X1605Y618D02*
X1554Y661D01*
D02*
X2351Y2043D02*
X2361Y2010D01*
D02*
X2361Y2010D02*
X2361Y1386D01*
D02*
X2361Y1386D02*
X2309Y1278D01*
G54D19*
G36*
X40Y2182D02*
X40Y2104D01*
X2556Y2104D01*
X2556Y2102D01*
X2562Y2102D01*
X2562Y2100D01*
X2566Y2100D01*
X2566Y2098D01*
X2568Y2098D01*
X2568Y2096D01*
X2572Y2096D01*
X2572Y2094D01*
X2574Y2094D01*
X2574Y2092D01*
X2576Y2092D01*
X2576Y2090D01*
X2578Y2090D01*
X2578Y2088D01*
X2580Y2088D01*
X2580Y2084D01*
X2582Y2084D01*
X2582Y2082D01*
X2584Y2082D01*
X2584Y2076D01*
X2586Y2076D01*
X2586Y2070D01*
X2588Y2070D01*
X2588Y2054D01*
X2586Y2054D01*
X2586Y2046D01*
X2584Y2046D01*
X2584Y2042D01*
X2582Y2042D01*
X2582Y2038D01*
X2580Y2038D01*
X2580Y2036D01*
X2578Y2036D01*
X2578Y2034D01*
X2576Y2034D01*
X2576Y2032D01*
X2574Y2032D01*
X2574Y2030D01*
X2572Y2030D01*
X2572Y2028D01*
X2570Y2028D01*
X2570Y2026D01*
X2566Y2026D01*
X2566Y2024D01*
X2562Y2024D01*
X2562Y2022D01*
X2558Y2022D01*
X2558Y2020D01*
X2746Y2020D01*
X2746Y2182D01*
X40Y2182D01*
G37*
D02*
G36*
X40Y2104D02*
X40Y2020D01*
X774Y2020D01*
X774Y2022D01*
X768Y2022D01*
X768Y2024D01*
X764Y2024D01*
X764Y2026D01*
X760Y2026D01*
X760Y2028D01*
X758Y2028D01*
X758Y2030D01*
X756Y2030D01*
X756Y2032D01*
X754Y2032D01*
X754Y2034D01*
X752Y2034D01*
X752Y2036D01*
X750Y2036D01*
X750Y2040D01*
X748Y2040D01*
X748Y2044D01*
X746Y2044D01*
X746Y2048D01*
X744Y2048D01*
X744Y2056D01*
X742Y2056D01*
X742Y2068D01*
X744Y2068D01*
X744Y2076D01*
X746Y2076D01*
X746Y2080D01*
X748Y2080D01*
X748Y2084D01*
X750Y2084D01*
X750Y2086D01*
X752Y2086D01*
X752Y2090D01*
X754Y2090D01*
X754Y2092D01*
X756Y2092D01*
X756Y2094D01*
X758Y2094D01*
X758Y2096D01*
X762Y2096D01*
X762Y2098D01*
X766Y2098D01*
X766Y2100D01*
X768Y2100D01*
X768Y2102D01*
X776Y2102D01*
X776Y2104D01*
X40Y2104D01*
G37*
D02*
G36*
X796Y2104D02*
X796Y2102D01*
X802Y2102D01*
X802Y2100D01*
X806Y2100D01*
X806Y2098D01*
X808Y2098D01*
X808Y2096D01*
X812Y2096D01*
X812Y2094D01*
X814Y2094D01*
X814Y2092D01*
X816Y2092D01*
X816Y2090D01*
X818Y2090D01*
X818Y2088D01*
X820Y2088D01*
X820Y2084D01*
X822Y2084D01*
X822Y2080D01*
X824Y2080D01*
X824Y2076D01*
X846Y2076D01*
X846Y2080D01*
X848Y2080D01*
X848Y2084D01*
X850Y2084D01*
X850Y2086D01*
X852Y2086D01*
X852Y2090D01*
X854Y2090D01*
X854Y2092D01*
X856Y2092D01*
X856Y2094D01*
X858Y2094D01*
X858Y2096D01*
X862Y2096D01*
X862Y2098D01*
X866Y2098D01*
X866Y2100D01*
X868Y2100D01*
X868Y2102D01*
X876Y2102D01*
X876Y2104D01*
X796Y2104D01*
G37*
D02*
G36*
X896Y2104D02*
X896Y2102D01*
X902Y2102D01*
X902Y2100D01*
X906Y2100D01*
X906Y2098D01*
X908Y2098D01*
X908Y2096D01*
X912Y2096D01*
X912Y2094D01*
X914Y2094D01*
X914Y2092D01*
X916Y2092D01*
X916Y2090D01*
X918Y2090D01*
X918Y2088D01*
X920Y2088D01*
X920Y2084D01*
X922Y2084D01*
X922Y2082D01*
X924Y2082D01*
X924Y2076D01*
X946Y2076D01*
X946Y2080D01*
X948Y2080D01*
X948Y2084D01*
X950Y2084D01*
X950Y2086D01*
X952Y2086D01*
X952Y2090D01*
X954Y2090D01*
X954Y2092D01*
X956Y2092D01*
X956Y2094D01*
X958Y2094D01*
X958Y2096D01*
X962Y2096D01*
X962Y2098D01*
X966Y2098D01*
X966Y2100D01*
X968Y2100D01*
X968Y2102D01*
X976Y2102D01*
X976Y2104D01*
X896Y2104D01*
G37*
D02*
G36*
X996Y2104D02*
X996Y2102D01*
X1002Y2102D01*
X1002Y2100D01*
X1006Y2100D01*
X1006Y2098D01*
X1008Y2098D01*
X1008Y2096D01*
X1012Y2096D01*
X1012Y2094D01*
X1014Y2094D01*
X1014Y2092D01*
X1016Y2092D01*
X1016Y2090D01*
X1018Y2090D01*
X1018Y2088D01*
X1020Y2088D01*
X1020Y2084D01*
X1022Y2084D01*
X1022Y2082D01*
X1024Y2082D01*
X1024Y2076D01*
X1046Y2076D01*
X1046Y2080D01*
X1048Y2080D01*
X1048Y2084D01*
X1050Y2084D01*
X1050Y2086D01*
X1052Y2086D01*
X1052Y2090D01*
X1054Y2090D01*
X1054Y2092D01*
X1056Y2092D01*
X1056Y2094D01*
X1058Y2094D01*
X1058Y2096D01*
X1062Y2096D01*
X1062Y2098D01*
X1066Y2098D01*
X1066Y2100D01*
X1068Y2100D01*
X1068Y2102D01*
X1076Y2102D01*
X1076Y2104D01*
X996Y2104D01*
G37*
D02*
G36*
X1096Y2104D02*
X1096Y2102D01*
X1102Y2102D01*
X1102Y2100D01*
X1106Y2100D01*
X1106Y2098D01*
X1108Y2098D01*
X1108Y2096D01*
X1112Y2096D01*
X1112Y2094D01*
X1114Y2094D01*
X1114Y2092D01*
X1116Y2092D01*
X1116Y2090D01*
X1118Y2090D01*
X1118Y2088D01*
X1120Y2088D01*
X1120Y2084D01*
X1122Y2084D01*
X1122Y2082D01*
X1124Y2082D01*
X1124Y2076D01*
X1146Y2076D01*
X1146Y2080D01*
X1148Y2080D01*
X1148Y2084D01*
X1150Y2084D01*
X1150Y2086D01*
X1152Y2086D01*
X1152Y2090D01*
X1154Y2090D01*
X1154Y2092D01*
X1156Y2092D01*
X1156Y2094D01*
X1158Y2094D01*
X1158Y2096D01*
X1162Y2096D01*
X1162Y2098D01*
X1166Y2098D01*
X1166Y2100D01*
X1168Y2100D01*
X1168Y2102D01*
X1176Y2102D01*
X1176Y2104D01*
X1096Y2104D01*
G37*
D02*
G36*
X1196Y2104D02*
X1196Y2102D01*
X1202Y2102D01*
X1202Y2100D01*
X1206Y2100D01*
X1206Y2098D01*
X1208Y2098D01*
X1208Y2096D01*
X1212Y2096D01*
X1212Y2094D01*
X1214Y2094D01*
X1214Y2092D01*
X1216Y2092D01*
X1216Y2090D01*
X1218Y2090D01*
X1218Y2088D01*
X1220Y2088D01*
X1220Y2084D01*
X1222Y2084D01*
X1222Y2082D01*
X1224Y2082D01*
X1224Y2076D01*
X1246Y2076D01*
X1246Y2080D01*
X1248Y2080D01*
X1248Y2084D01*
X1250Y2084D01*
X1250Y2086D01*
X1252Y2086D01*
X1252Y2090D01*
X1254Y2090D01*
X1254Y2092D01*
X1256Y2092D01*
X1256Y2094D01*
X1258Y2094D01*
X1258Y2096D01*
X1262Y2096D01*
X1262Y2098D01*
X1266Y2098D01*
X1266Y2100D01*
X1268Y2100D01*
X1268Y2102D01*
X1276Y2102D01*
X1276Y2104D01*
X1196Y2104D01*
G37*
D02*
G36*
X1296Y2104D02*
X1296Y2102D01*
X1302Y2102D01*
X1302Y2100D01*
X1306Y2100D01*
X1306Y2098D01*
X1308Y2098D01*
X1308Y2096D01*
X1312Y2096D01*
X1312Y2094D01*
X1314Y2094D01*
X1314Y2092D01*
X1316Y2092D01*
X1316Y2090D01*
X1318Y2090D01*
X1318Y2088D01*
X1320Y2088D01*
X1320Y2084D01*
X1322Y2084D01*
X1322Y2082D01*
X1324Y2082D01*
X1324Y2076D01*
X1346Y2076D01*
X1346Y2080D01*
X1348Y2080D01*
X1348Y2084D01*
X1350Y2084D01*
X1350Y2086D01*
X1352Y2086D01*
X1352Y2090D01*
X1354Y2090D01*
X1354Y2092D01*
X1356Y2092D01*
X1356Y2094D01*
X1358Y2094D01*
X1358Y2096D01*
X1362Y2096D01*
X1362Y2098D01*
X1366Y2098D01*
X1366Y2100D01*
X1368Y2100D01*
X1368Y2102D01*
X1376Y2102D01*
X1376Y2104D01*
X1296Y2104D01*
G37*
D02*
G36*
X1396Y2104D02*
X1396Y2102D01*
X1402Y2102D01*
X1402Y2100D01*
X1406Y2100D01*
X1406Y2098D01*
X1408Y2098D01*
X1408Y2096D01*
X1412Y2096D01*
X1412Y2094D01*
X1414Y2094D01*
X1414Y2092D01*
X1416Y2092D01*
X1416Y2090D01*
X1418Y2090D01*
X1418Y2088D01*
X1420Y2088D01*
X1420Y2084D01*
X1422Y2084D01*
X1422Y2082D01*
X1424Y2082D01*
X1424Y2076D01*
X1446Y2076D01*
X1446Y2080D01*
X1448Y2080D01*
X1448Y2084D01*
X1450Y2084D01*
X1450Y2086D01*
X1452Y2086D01*
X1452Y2090D01*
X1454Y2090D01*
X1454Y2092D01*
X1456Y2092D01*
X1456Y2094D01*
X1458Y2094D01*
X1458Y2096D01*
X1462Y2096D01*
X1462Y2098D01*
X1466Y2098D01*
X1466Y2100D01*
X1468Y2100D01*
X1468Y2102D01*
X1476Y2102D01*
X1476Y2104D01*
X1396Y2104D01*
G37*
D02*
G36*
X1496Y2104D02*
X1496Y2102D01*
X1502Y2102D01*
X1502Y2100D01*
X1506Y2100D01*
X1506Y2098D01*
X1508Y2098D01*
X1508Y2096D01*
X1512Y2096D01*
X1512Y2094D01*
X1514Y2094D01*
X1514Y2092D01*
X1516Y2092D01*
X1516Y2090D01*
X1518Y2090D01*
X1518Y2088D01*
X1520Y2088D01*
X1520Y2084D01*
X1522Y2084D01*
X1522Y2082D01*
X1524Y2082D01*
X1524Y2076D01*
X1546Y2076D01*
X1546Y2080D01*
X1548Y2080D01*
X1548Y2084D01*
X1550Y2084D01*
X1550Y2086D01*
X1552Y2086D01*
X1552Y2090D01*
X1554Y2090D01*
X1554Y2092D01*
X1556Y2092D01*
X1556Y2094D01*
X1558Y2094D01*
X1558Y2096D01*
X1562Y2096D01*
X1562Y2098D01*
X1566Y2098D01*
X1566Y2100D01*
X1568Y2100D01*
X1568Y2102D01*
X1576Y2102D01*
X1576Y2104D01*
X1496Y2104D01*
G37*
D02*
G36*
X1596Y2104D02*
X1596Y2102D01*
X1602Y2102D01*
X1602Y2100D01*
X1606Y2100D01*
X1606Y2098D01*
X1608Y2098D01*
X1608Y2096D01*
X1612Y2096D01*
X1612Y2094D01*
X1614Y2094D01*
X1614Y2092D01*
X1616Y2092D01*
X1616Y2090D01*
X1618Y2090D01*
X1618Y2088D01*
X1620Y2088D01*
X1620Y2084D01*
X1622Y2084D01*
X1622Y2082D01*
X1624Y2082D01*
X1624Y2076D01*
X1646Y2076D01*
X1646Y2080D01*
X1648Y2080D01*
X1648Y2084D01*
X1650Y2084D01*
X1650Y2086D01*
X1652Y2086D01*
X1652Y2090D01*
X1654Y2090D01*
X1654Y2092D01*
X1656Y2092D01*
X1656Y2094D01*
X1658Y2094D01*
X1658Y2096D01*
X1662Y2096D01*
X1662Y2098D01*
X1666Y2098D01*
X1666Y2100D01*
X1668Y2100D01*
X1668Y2102D01*
X1676Y2102D01*
X1676Y2104D01*
X1596Y2104D01*
G37*
D02*
G36*
X1696Y2104D02*
X1696Y2102D01*
X1702Y2102D01*
X1702Y2100D01*
X1706Y2100D01*
X1706Y2098D01*
X1708Y2098D01*
X1708Y2096D01*
X1712Y2096D01*
X1712Y2094D01*
X1714Y2094D01*
X1714Y2092D01*
X1716Y2092D01*
X1716Y2090D01*
X1718Y2090D01*
X1718Y2088D01*
X1720Y2088D01*
X1720Y2084D01*
X1722Y2084D01*
X1722Y2080D01*
X1724Y2080D01*
X1724Y2076D01*
X1726Y2076D01*
X1726Y2070D01*
X1728Y2070D01*
X1728Y2054D01*
X1726Y2054D01*
X1726Y2046D01*
X1724Y2046D01*
X1724Y2042D01*
X1722Y2042D01*
X1722Y2038D01*
X1720Y2038D01*
X1720Y2036D01*
X1718Y2036D01*
X1718Y2034D01*
X1716Y2034D01*
X1716Y2032D01*
X1714Y2032D01*
X1714Y2030D01*
X1712Y2030D01*
X1712Y2028D01*
X1710Y2028D01*
X1710Y2026D01*
X1706Y2026D01*
X1706Y2024D01*
X1702Y2024D01*
X1702Y2022D01*
X1698Y2022D01*
X1698Y2020D01*
X1834Y2020D01*
X1834Y2022D01*
X1828Y2022D01*
X1828Y2024D01*
X1824Y2024D01*
X1824Y2026D01*
X1820Y2026D01*
X1820Y2028D01*
X1818Y2028D01*
X1818Y2030D01*
X1816Y2030D01*
X1816Y2032D01*
X1814Y2032D01*
X1814Y2034D01*
X1812Y2034D01*
X1812Y2036D01*
X1810Y2036D01*
X1810Y2040D01*
X1808Y2040D01*
X1808Y2044D01*
X1806Y2044D01*
X1806Y2048D01*
X1804Y2048D01*
X1804Y2056D01*
X1802Y2056D01*
X1802Y2068D01*
X1804Y2068D01*
X1804Y2076D01*
X1806Y2076D01*
X1806Y2080D01*
X1808Y2080D01*
X1808Y2084D01*
X1810Y2084D01*
X1810Y2086D01*
X1812Y2086D01*
X1812Y2090D01*
X1814Y2090D01*
X1814Y2092D01*
X1816Y2092D01*
X1816Y2094D01*
X1818Y2094D01*
X1818Y2096D01*
X1822Y2096D01*
X1822Y2098D01*
X1826Y2098D01*
X1826Y2100D01*
X1828Y2100D01*
X1828Y2102D01*
X1836Y2102D01*
X1836Y2104D01*
X1696Y2104D01*
G37*
D02*
G36*
X1856Y2104D02*
X1856Y2102D01*
X1862Y2102D01*
X1862Y2100D01*
X1866Y2100D01*
X1866Y2098D01*
X1868Y2098D01*
X1868Y2096D01*
X1872Y2096D01*
X1872Y2094D01*
X1874Y2094D01*
X1874Y2092D01*
X1876Y2092D01*
X1876Y2090D01*
X1878Y2090D01*
X1878Y2088D01*
X1880Y2088D01*
X1880Y2084D01*
X1882Y2084D01*
X1882Y2082D01*
X1884Y2082D01*
X1884Y2076D01*
X1906Y2076D01*
X1906Y2080D01*
X1908Y2080D01*
X1908Y2084D01*
X1910Y2084D01*
X1910Y2086D01*
X1912Y2086D01*
X1912Y2090D01*
X1914Y2090D01*
X1914Y2092D01*
X1916Y2092D01*
X1916Y2094D01*
X1918Y2094D01*
X1918Y2096D01*
X1922Y2096D01*
X1922Y2098D01*
X1926Y2098D01*
X1926Y2100D01*
X1928Y2100D01*
X1928Y2102D01*
X1936Y2102D01*
X1936Y2104D01*
X1856Y2104D01*
G37*
D02*
G36*
X1956Y2104D02*
X1956Y2102D01*
X1962Y2102D01*
X1962Y2100D01*
X1966Y2100D01*
X1966Y2098D01*
X1968Y2098D01*
X1968Y2096D01*
X1972Y2096D01*
X1972Y2094D01*
X1974Y2094D01*
X1974Y2092D01*
X1976Y2092D01*
X1976Y2090D01*
X1978Y2090D01*
X1978Y2088D01*
X1980Y2088D01*
X1980Y2084D01*
X1982Y2084D01*
X1982Y2082D01*
X1984Y2082D01*
X1984Y2076D01*
X2006Y2076D01*
X2006Y2080D01*
X2008Y2080D01*
X2008Y2084D01*
X2010Y2084D01*
X2010Y2086D01*
X2012Y2086D01*
X2012Y2090D01*
X2014Y2090D01*
X2014Y2092D01*
X2016Y2092D01*
X2016Y2094D01*
X2018Y2094D01*
X2018Y2096D01*
X2022Y2096D01*
X2022Y2098D01*
X2026Y2098D01*
X2026Y2100D01*
X2028Y2100D01*
X2028Y2102D01*
X2036Y2102D01*
X2036Y2104D01*
X1956Y2104D01*
G37*
D02*
G36*
X2056Y2104D02*
X2056Y2102D01*
X2062Y2102D01*
X2062Y2100D01*
X2066Y2100D01*
X2066Y2098D01*
X2068Y2098D01*
X2068Y2096D01*
X2072Y2096D01*
X2072Y2094D01*
X2074Y2094D01*
X2074Y2092D01*
X2076Y2092D01*
X2076Y2090D01*
X2078Y2090D01*
X2078Y2088D01*
X2080Y2088D01*
X2080Y2084D01*
X2082Y2084D01*
X2082Y2082D01*
X2084Y2082D01*
X2084Y2076D01*
X2106Y2076D01*
X2106Y2080D01*
X2108Y2080D01*
X2108Y2084D01*
X2110Y2084D01*
X2110Y2086D01*
X2112Y2086D01*
X2112Y2090D01*
X2114Y2090D01*
X2114Y2092D01*
X2116Y2092D01*
X2116Y2094D01*
X2118Y2094D01*
X2118Y2096D01*
X2122Y2096D01*
X2122Y2098D01*
X2126Y2098D01*
X2126Y2100D01*
X2128Y2100D01*
X2128Y2102D01*
X2136Y2102D01*
X2136Y2104D01*
X2056Y2104D01*
G37*
D02*
G36*
X2156Y2104D02*
X2156Y2102D01*
X2162Y2102D01*
X2162Y2100D01*
X2166Y2100D01*
X2166Y2098D01*
X2168Y2098D01*
X2168Y2096D01*
X2172Y2096D01*
X2172Y2094D01*
X2174Y2094D01*
X2174Y2092D01*
X2176Y2092D01*
X2176Y2090D01*
X2178Y2090D01*
X2178Y2088D01*
X2180Y2088D01*
X2180Y2084D01*
X2182Y2084D01*
X2182Y2082D01*
X2184Y2082D01*
X2184Y2076D01*
X2206Y2076D01*
X2206Y2080D01*
X2208Y2080D01*
X2208Y2084D01*
X2210Y2084D01*
X2210Y2086D01*
X2212Y2086D01*
X2212Y2090D01*
X2214Y2090D01*
X2214Y2092D01*
X2216Y2092D01*
X2216Y2094D01*
X2218Y2094D01*
X2218Y2096D01*
X2222Y2096D01*
X2222Y2098D01*
X2226Y2098D01*
X2226Y2100D01*
X2228Y2100D01*
X2228Y2102D01*
X2236Y2102D01*
X2236Y2104D01*
X2156Y2104D01*
G37*
D02*
G36*
X2256Y2104D02*
X2256Y2102D01*
X2262Y2102D01*
X2262Y2100D01*
X2266Y2100D01*
X2266Y2098D01*
X2268Y2098D01*
X2268Y2096D01*
X2272Y2096D01*
X2272Y2094D01*
X2274Y2094D01*
X2274Y2092D01*
X2276Y2092D01*
X2276Y2090D01*
X2278Y2090D01*
X2278Y2088D01*
X2280Y2088D01*
X2280Y2084D01*
X2282Y2084D01*
X2282Y2080D01*
X2284Y2080D01*
X2284Y2076D01*
X2306Y2076D01*
X2306Y2080D01*
X2308Y2080D01*
X2308Y2084D01*
X2310Y2084D01*
X2310Y2086D01*
X2312Y2086D01*
X2312Y2090D01*
X2314Y2090D01*
X2314Y2092D01*
X2316Y2092D01*
X2316Y2094D01*
X2318Y2094D01*
X2318Y2096D01*
X2322Y2096D01*
X2322Y2098D01*
X2326Y2098D01*
X2326Y2100D01*
X2328Y2100D01*
X2328Y2102D01*
X2336Y2102D01*
X2336Y2104D01*
X2256Y2104D01*
G37*
D02*
G36*
X2356Y2104D02*
X2356Y2102D01*
X2362Y2102D01*
X2362Y2100D01*
X2366Y2100D01*
X2366Y2098D01*
X2368Y2098D01*
X2368Y2096D01*
X2372Y2096D01*
X2372Y2094D01*
X2374Y2094D01*
X2374Y2092D01*
X2376Y2092D01*
X2376Y2090D01*
X2378Y2090D01*
X2378Y2088D01*
X2380Y2088D01*
X2380Y2084D01*
X2382Y2084D01*
X2382Y2082D01*
X2384Y2082D01*
X2384Y2076D01*
X2406Y2076D01*
X2406Y2080D01*
X2408Y2080D01*
X2408Y2084D01*
X2410Y2084D01*
X2410Y2086D01*
X2412Y2086D01*
X2412Y2090D01*
X2414Y2090D01*
X2414Y2092D01*
X2416Y2092D01*
X2416Y2094D01*
X2418Y2094D01*
X2418Y2096D01*
X2422Y2096D01*
X2422Y2098D01*
X2426Y2098D01*
X2426Y2100D01*
X2428Y2100D01*
X2428Y2102D01*
X2436Y2102D01*
X2436Y2104D01*
X2356Y2104D01*
G37*
D02*
G36*
X2456Y2104D02*
X2456Y2102D01*
X2462Y2102D01*
X2462Y2100D01*
X2466Y2100D01*
X2466Y2098D01*
X2468Y2098D01*
X2468Y2096D01*
X2472Y2096D01*
X2472Y2094D01*
X2474Y2094D01*
X2474Y2092D01*
X2476Y2092D01*
X2476Y2090D01*
X2478Y2090D01*
X2478Y2088D01*
X2480Y2088D01*
X2480Y2084D01*
X2482Y2084D01*
X2482Y2082D01*
X2484Y2082D01*
X2484Y2076D01*
X2506Y2076D01*
X2506Y2080D01*
X2508Y2080D01*
X2508Y2084D01*
X2510Y2084D01*
X2510Y2086D01*
X2512Y2086D01*
X2512Y2090D01*
X2514Y2090D01*
X2514Y2092D01*
X2516Y2092D01*
X2516Y2094D01*
X2518Y2094D01*
X2518Y2096D01*
X2522Y2096D01*
X2522Y2098D01*
X2526Y2098D01*
X2526Y2100D01*
X2528Y2100D01*
X2528Y2102D01*
X2536Y2102D01*
X2536Y2104D01*
X2456Y2104D01*
G37*
D02*
G36*
X826Y2048D02*
X826Y2046D01*
X824Y2046D01*
X824Y2042D01*
X822Y2042D01*
X822Y2038D01*
X820Y2038D01*
X820Y2036D01*
X818Y2036D01*
X818Y2034D01*
X816Y2034D01*
X816Y2032D01*
X814Y2032D01*
X814Y2030D01*
X812Y2030D01*
X812Y2028D01*
X810Y2028D01*
X810Y2026D01*
X806Y2026D01*
X806Y2024D01*
X802Y2024D01*
X802Y2022D01*
X798Y2022D01*
X798Y2020D01*
X874Y2020D01*
X874Y2022D01*
X868Y2022D01*
X868Y2024D01*
X864Y2024D01*
X864Y2026D01*
X860Y2026D01*
X860Y2028D01*
X858Y2028D01*
X858Y2030D01*
X856Y2030D01*
X856Y2032D01*
X854Y2032D01*
X854Y2034D01*
X852Y2034D01*
X852Y2036D01*
X850Y2036D01*
X850Y2040D01*
X848Y2040D01*
X848Y2044D01*
X846Y2044D01*
X846Y2048D01*
X826Y2048D01*
G37*
D02*
G36*
X926Y2048D02*
X926Y2046D01*
X924Y2046D01*
X924Y2042D01*
X922Y2042D01*
X922Y2038D01*
X920Y2038D01*
X920Y2036D01*
X918Y2036D01*
X918Y2034D01*
X916Y2034D01*
X916Y2032D01*
X914Y2032D01*
X914Y2030D01*
X912Y2030D01*
X912Y2028D01*
X910Y2028D01*
X910Y2026D01*
X906Y2026D01*
X906Y2024D01*
X902Y2024D01*
X902Y2022D01*
X898Y2022D01*
X898Y2020D01*
X974Y2020D01*
X974Y2022D01*
X968Y2022D01*
X968Y2024D01*
X964Y2024D01*
X964Y2026D01*
X960Y2026D01*
X960Y2028D01*
X958Y2028D01*
X958Y2030D01*
X956Y2030D01*
X956Y2032D01*
X954Y2032D01*
X954Y2034D01*
X952Y2034D01*
X952Y2036D01*
X950Y2036D01*
X950Y2040D01*
X948Y2040D01*
X948Y2044D01*
X946Y2044D01*
X946Y2048D01*
X926Y2048D01*
G37*
D02*
G36*
X1026Y2048D02*
X1026Y2046D01*
X1024Y2046D01*
X1024Y2042D01*
X1022Y2042D01*
X1022Y2038D01*
X1020Y2038D01*
X1020Y2036D01*
X1018Y2036D01*
X1018Y2034D01*
X1016Y2034D01*
X1016Y2032D01*
X1014Y2032D01*
X1014Y2030D01*
X1012Y2030D01*
X1012Y2028D01*
X1010Y2028D01*
X1010Y2026D01*
X1006Y2026D01*
X1006Y2024D01*
X1002Y2024D01*
X1002Y2022D01*
X998Y2022D01*
X998Y2020D01*
X1074Y2020D01*
X1074Y2022D01*
X1068Y2022D01*
X1068Y2024D01*
X1064Y2024D01*
X1064Y2026D01*
X1060Y2026D01*
X1060Y2028D01*
X1058Y2028D01*
X1058Y2030D01*
X1056Y2030D01*
X1056Y2032D01*
X1054Y2032D01*
X1054Y2034D01*
X1052Y2034D01*
X1052Y2036D01*
X1050Y2036D01*
X1050Y2040D01*
X1048Y2040D01*
X1048Y2044D01*
X1046Y2044D01*
X1046Y2048D01*
X1026Y2048D01*
G37*
D02*
G36*
X1126Y2048D02*
X1126Y2046D01*
X1124Y2046D01*
X1124Y2042D01*
X1122Y2042D01*
X1122Y2038D01*
X1120Y2038D01*
X1120Y2036D01*
X1118Y2036D01*
X1118Y2034D01*
X1116Y2034D01*
X1116Y2032D01*
X1114Y2032D01*
X1114Y2030D01*
X1112Y2030D01*
X1112Y2028D01*
X1110Y2028D01*
X1110Y2026D01*
X1106Y2026D01*
X1106Y2024D01*
X1102Y2024D01*
X1102Y2022D01*
X1098Y2022D01*
X1098Y2020D01*
X1174Y2020D01*
X1174Y2022D01*
X1168Y2022D01*
X1168Y2024D01*
X1164Y2024D01*
X1164Y2026D01*
X1160Y2026D01*
X1160Y2028D01*
X1158Y2028D01*
X1158Y2030D01*
X1156Y2030D01*
X1156Y2032D01*
X1154Y2032D01*
X1154Y2034D01*
X1152Y2034D01*
X1152Y2036D01*
X1150Y2036D01*
X1150Y2040D01*
X1148Y2040D01*
X1148Y2044D01*
X1146Y2044D01*
X1146Y2048D01*
X1126Y2048D01*
G37*
D02*
G36*
X1226Y2048D02*
X1226Y2046D01*
X1224Y2046D01*
X1224Y2042D01*
X1222Y2042D01*
X1222Y2038D01*
X1220Y2038D01*
X1220Y2036D01*
X1218Y2036D01*
X1218Y2034D01*
X1216Y2034D01*
X1216Y2032D01*
X1214Y2032D01*
X1214Y2030D01*
X1212Y2030D01*
X1212Y2028D01*
X1210Y2028D01*
X1210Y2026D01*
X1206Y2026D01*
X1206Y2024D01*
X1202Y2024D01*
X1202Y2022D01*
X1198Y2022D01*
X1198Y2020D01*
X1274Y2020D01*
X1274Y2022D01*
X1268Y2022D01*
X1268Y2024D01*
X1264Y2024D01*
X1264Y2026D01*
X1260Y2026D01*
X1260Y2028D01*
X1258Y2028D01*
X1258Y2030D01*
X1256Y2030D01*
X1256Y2032D01*
X1254Y2032D01*
X1254Y2034D01*
X1252Y2034D01*
X1252Y2036D01*
X1250Y2036D01*
X1250Y2040D01*
X1248Y2040D01*
X1248Y2044D01*
X1246Y2044D01*
X1246Y2048D01*
X1226Y2048D01*
G37*
D02*
G36*
X1326Y2048D02*
X1326Y2046D01*
X1324Y2046D01*
X1324Y2042D01*
X1322Y2042D01*
X1322Y2038D01*
X1320Y2038D01*
X1320Y2036D01*
X1318Y2036D01*
X1318Y2034D01*
X1316Y2034D01*
X1316Y2032D01*
X1314Y2032D01*
X1314Y2030D01*
X1312Y2030D01*
X1312Y2028D01*
X1310Y2028D01*
X1310Y2026D01*
X1306Y2026D01*
X1306Y2024D01*
X1302Y2024D01*
X1302Y2022D01*
X1298Y2022D01*
X1298Y2020D01*
X1374Y2020D01*
X1374Y2022D01*
X1368Y2022D01*
X1368Y2024D01*
X1364Y2024D01*
X1364Y2026D01*
X1360Y2026D01*
X1360Y2028D01*
X1358Y2028D01*
X1358Y2030D01*
X1356Y2030D01*
X1356Y2032D01*
X1354Y2032D01*
X1354Y2034D01*
X1352Y2034D01*
X1352Y2036D01*
X1350Y2036D01*
X1350Y2040D01*
X1348Y2040D01*
X1348Y2044D01*
X1346Y2044D01*
X1346Y2048D01*
X1326Y2048D01*
G37*
D02*
G36*
X1426Y2048D02*
X1426Y2046D01*
X1424Y2046D01*
X1424Y2042D01*
X1422Y2042D01*
X1422Y2038D01*
X1420Y2038D01*
X1420Y2036D01*
X1418Y2036D01*
X1418Y2034D01*
X1416Y2034D01*
X1416Y2032D01*
X1414Y2032D01*
X1414Y2030D01*
X1412Y2030D01*
X1412Y2028D01*
X1410Y2028D01*
X1410Y2026D01*
X1406Y2026D01*
X1406Y2024D01*
X1402Y2024D01*
X1402Y2022D01*
X1398Y2022D01*
X1398Y2020D01*
X1474Y2020D01*
X1474Y2022D01*
X1468Y2022D01*
X1468Y2024D01*
X1464Y2024D01*
X1464Y2026D01*
X1460Y2026D01*
X1460Y2028D01*
X1458Y2028D01*
X1458Y2030D01*
X1456Y2030D01*
X1456Y2032D01*
X1454Y2032D01*
X1454Y2034D01*
X1452Y2034D01*
X1452Y2036D01*
X1450Y2036D01*
X1450Y2040D01*
X1448Y2040D01*
X1448Y2044D01*
X1446Y2044D01*
X1446Y2048D01*
X1426Y2048D01*
G37*
D02*
G36*
X1526Y2048D02*
X1526Y2046D01*
X1524Y2046D01*
X1524Y2042D01*
X1522Y2042D01*
X1522Y2038D01*
X1520Y2038D01*
X1520Y2036D01*
X1518Y2036D01*
X1518Y2034D01*
X1516Y2034D01*
X1516Y2032D01*
X1514Y2032D01*
X1514Y2030D01*
X1512Y2030D01*
X1512Y2028D01*
X1510Y2028D01*
X1510Y2026D01*
X1506Y2026D01*
X1506Y2024D01*
X1502Y2024D01*
X1502Y2022D01*
X1498Y2022D01*
X1498Y2020D01*
X1574Y2020D01*
X1574Y2022D01*
X1568Y2022D01*
X1568Y2024D01*
X1564Y2024D01*
X1564Y2026D01*
X1560Y2026D01*
X1560Y2028D01*
X1558Y2028D01*
X1558Y2030D01*
X1556Y2030D01*
X1556Y2032D01*
X1554Y2032D01*
X1554Y2034D01*
X1552Y2034D01*
X1552Y2036D01*
X1550Y2036D01*
X1550Y2040D01*
X1548Y2040D01*
X1548Y2044D01*
X1546Y2044D01*
X1546Y2048D01*
X1526Y2048D01*
G37*
D02*
G36*
X1626Y2048D02*
X1626Y2046D01*
X1624Y2046D01*
X1624Y2042D01*
X1622Y2042D01*
X1622Y2038D01*
X1620Y2038D01*
X1620Y2036D01*
X1618Y2036D01*
X1618Y2034D01*
X1616Y2034D01*
X1616Y2032D01*
X1614Y2032D01*
X1614Y2030D01*
X1612Y2030D01*
X1612Y2028D01*
X1610Y2028D01*
X1610Y2026D01*
X1606Y2026D01*
X1606Y2024D01*
X1602Y2024D01*
X1602Y2022D01*
X1598Y2022D01*
X1598Y2020D01*
X1674Y2020D01*
X1674Y2022D01*
X1668Y2022D01*
X1668Y2024D01*
X1664Y2024D01*
X1664Y2026D01*
X1660Y2026D01*
X1660Y2028D01*
X1658Y2028D01*
X1658Y2030D01*
X1656Y2030D01*
X1656Y2032D01*
X1654Y2032D01*
X1654Y2034D01*
X1652Y2034D01*
X1652Y2036D01*
X1650Y2036D01*
X1650Y2040D01*
X1648Y2040D01*
X1648Y2044D01*
X1646Y2044D01*
X1646Y2048D01*
X1626Y2048D01*
G37*
D02*
G36*
X1886Y2048D02*
X1886Y2046D01*
X1884Y2046D01*
X1884Y2042D01*
X1882Y2042D01*
X1882Y2038D01*
X1880Y2038D01*
X1880Y2036D01*
X1878Y2036D01*
X1878Y2034D01*
X1876Y2034D01*
X1876Y2032D01*
X1874Y2032D01*
X1874Y2030D01*
X1872Y2030D01*
X1872Y2028D01*
X1870Y2028D01*
X1870Y2026D01*
X1866Y2026D01*
X1866Y2024D01*
X1862Y2024D01*
X1862Y2022D01*
X1858Y2022D01*
X1858Y2020D01*
X1934Y2020D01*
X1934Y2022D01*
X1928Y2022D01*
X1928Y2024D01*
X1924Y2024D01*
X1924Y2026D01*
X1920Y2026D01*
X1920Y2028D01*
X1918Y2028D01*
X1918Y2030D01*
X1916Y2030D01*
X1916Y2032D01*
X1914Y2032D01*
X1914Y2034D01*
X1912Y2034D01*
X1912Y2036D01*
X1910Y2036D01*
X1910Y2040D01*
X1908Y2040D01*
X1908Y2044D01*
X1906Y2044D01*
X1906Y2048D01*
X1886Y2048D01*
G37*
D02*
G36*
X1986Y2048D02*
X1986Y2046D01*
X1984Y2046D01*
X1984Y2042D01*
X1982Y2042D01*
X1982Y2038D01*
X1980Y2038D01*
X1980Y2036D01*
X1978Y2036D01*
X1978Y2034D01*
X1976Y2034D01*
X1976Y2032D01*
X1974Y2032D01*
X1974Y2030D01*
X1972Y2030D01*
X1972Y2028D01*
X1970Y2028D01*
X1970Y2026D01*
X1966Y2026D01*
X1966Y2024D01*
X1962Y2024D01*
X1962Y2022D01*
X1958Y2022D01*
X1958Y2020D01*
X2034Y2020D01*
X2034Y2022D01*
X2028Y2022D01*
X2028Y2024D01*
X2024Y2024D01*
X2024Y2026D01*
X2020Y2026D01*
X2020Y2028D01*
X2018Y2028D01*
X2018Y2030D01*
X2016Y2030D01*
X2016Y2032D01*
X2014Y2032D01*
X2014Y2034D01*
X2012Y2034D01*
X2012Y2036D01*
X2010Y2036D01*
X2010Y2040D01*
X2008Y2040D01*
X2008Y2044D01*
X2006Y2044D01*
X2006Y2048D01*
X1986Y2048D01*
G37*
D02*
G36*
X2086Y2048D02*
X2086Y2046D01*
X2084Y2046D01*
X2084Y2042D01*
X2082Y2042D01*
X2082Y2038D01*
X2080Y2038D01*
X2080Y2036D01*
X2078Y2036D01*
X2078Y2034D01*
X2076Y2034D01*
X2076Y2032D01*
X2074Y2032D01*
X2074Y2030D01*
X2072Y2030D01*
X2072Y2028D01*
X2070Y2028D01*
X2070Y2026D01*
X2066Y2026D01*
X2066Y2024D01*
X2062Y2024D01*
X2062Y2022D01*
X2058Y2022D01*
X2058Y2020D01*
X2134Y2020D01*
X2134Y2022D01*
X2128Y2022D01*
X2128Y2024D01*
X2124Y2024D01*
X2124Y2026D01*
X2120Y2026D01*
X2120Y2028D01*
X2118Y2028D01*
X2118Y2030D01*
X2116Y2030D01*
X2116Y2032D01*
X2114Y2032D01*
X2114Y2034D01*
X2112Y2034D01*
X2112Y2036D01*
X2110Y2036D01*
X2110Y2040D01*
X2108Y2040D01*
X2108Y2044D01*
X2106Y2044D01*
X2106Y2048D01*
X2086Y2048D01*
G37*
D02*
G36*
X2186Y2048D02*
X2186Y2046D01*
X2184Y2046D01*
X2184Y2042D01*
X2182Y2042D01*
X2182Y2038D01*
X2180Y2038D01*
X2180Y2036D01*
X2178Y2036D01*
X2178Y2034D01*
X2176Y2034D01*
X2176Y2032D01*
X2174Y2032D01*
X2174Y2030D01*
X2172Y2030D01*
X2172Y2028D01*
X2170Y2028D01*
X2170Y2026D01*
X2166Y2026D01*
X2166Y2024D01*
X2162Y2024D01*
X2162Y2022D01*
X2158Y2022D01*
X2158Y2020D01*
X2234Y2020D01*
X2234Y2022D01*
X2228Y2022D01*
X2228Y2024D01*
X2224Y2024D01*
X2224Y2026D01*
X2220Y2026D01*
X2220Y2028D01*
X2218Y2028D01*
X2218Y2030D01*
X2216Y2030D01*
X2216Y2032D01*
X2214Y2032D01*
X2214Y2034D01*
X2212Y2034D01*
X2212Y2036D01*
X2210Y2036D01*
X2210Y2040D01*
X2208Y2040D01*
X2208Y2044D01*
X2206Y2044D01*
X2206Y2048D01*
X2186Y2048D01*
G37*
D02*
G36*
X2286Y2048D02*
X2286Y2046D01*
X2284Y2046D01*
X2284Y2042D01*
X2282Y2042D01*
X2282Y2038D01*
X2280Y2038D01*
X2280Y2036D01*
X2278Y2036D01*
X2278Y2034D01*
X2276Y2034D01*
X2276Y2032D01*
X2274Y2032D01*
X2274Y2030D01*
X2272Y2030D01*
X2272Y2028D01*
X2270Y2028D01*
X2270Y2026D01*
X2266Y2026D01*
X2266Y2024D01*
X2262Y2024D01*
X2262Y2022D01*
X2258Y2022D01*
X2258Y2020D01*
X2334Y2020D01*
X2334Y2022D01*
X2328Y2022D01*
X2328Y2024D01*
X2324Y2024D01*
X2324Y2026D01*
X2320Y2026D01*
X2320Y2028D01*
X2318Y2028D01*
X2318Y2030D01*
X2316Y2030D01*
X2316Y2032D01*
X2314Y2032D01*
X2314Y2034D01*
X2312Y2034D01*
X2312Y2036D01*
X2310Y2036D01*
X2310Y2040D01*
X2308Y2040D01*
X2308Y2044D01*
X2306Y2044D01*
X2306Y2048D01*
X2286Y2048D01*
G37*
D02*
G36*
X2386Y2048D02*
X2386Y2046D01*
X2384Y2046D01*
X2384Y2042D01*
X2382Y2042D01*
X2382Y2038D01*
X2380Y2038D01*
X2380Y2020D01*
X2434Y2020D01*
X2434Y2022D01*
X2428Y2022D01*
X2428Y2024D01*
X2424Y2024D01*
X2424Y2026D01*
X2420Y2026D01*
X2420Y2028D01*
X2418Y2028D01*
X2418Y2030D01*
X2416Y2030D01*
X2416Y2032D01*
X2414Y2032D01*
X2414Y2034D01*
X2412Y2034D01*
X2412Y2036D01*
X2410Y2036D01*
X2410Y2040D01*
X2408Y2040D01*
X2408Y2044D01*
X2406Y2044D01*
X2406Y2048D01*
X2386Y2048D01*
G37*
D02*
G36*
X2486Y2048D02*
X2486Y2046D01*
X2484Y2046D01*
X2484Y2042D01*
X2482Y2042D01*
X2482Y2038D01*
X2480Y2038D01*
X2480Y2036D01*
X2478Y2036D01*
X2478Y2034D01*
X2476Y2034D01*
X2476Y2032D01*
X2474Y2032D01*
X2474Y2030D01*
X2472Y2030D01*
X2472Y2028D01*
X2470Y2028D01*
X2470Y2026D01*
X2466Y2026D01*
X2466Y2024D01*
X2462Y2024D01*
X2462Y2022D01*
X2458Y2022D01*
X2458Y2020D01*
X2534Y2020D01*
X2534Y2022D01*
X2528Y2022D01*
X2528Y2024D01*
X2524Y2024D01*
X2524Y2026D01*
X2520Y2026D01*
X2520Y2028D01*
X2518Y2028D01*
X2518Y2030D01*
X2516Y2030D01*
X2516Y2032D01*
X2514Y2032D01*
X2514Y2034D01*
X2512Y2034D01*
X2512Y2036D01*
X2510Y2036D01*
X2510Y2040D01*
X2508Y2040D01*
X2508Y2044D01*
X2506Y2044D01*
X2506Y2048D01*
X2486Y2048D01*
G37*
D02*
G36*
X40Y2020D02*
X40Y2018D01*
X2336Y2018D01*
X2336Y2020D01*
X40Y2020D01*
G37*
D02*
G36*
X40Y2020D02*
X40Y2018D01*
X2336Y2018D01*
X2336Y2020D01*
X40Y2020D01*
G37*
D02*
G36*
X40Y2020D02*
X40Y2018D01*
X2336Y2018D01*
X2336Y2020D01*
X40Y2020D01*
G37*
D02*
G36*
X40Y2020D02*
X40Y2018D01*
X2336Y2018D01*
X2336Y2020D01*
X40Y2020D01*
G37*
D02*
G36*
X40Y2020D02*
X40Y2018D01*
X2336Y2018D01*
X2336Y2020D01*
X40Y2020D01*
G37*
D02*
G36*
X40Y2020D02*
X40Y2018D01*
X2336Y2018D01*
X2336Y2020D01*
X40Y2020D01*
G37*
D02*
G36*
X40Y2020D02*
X40Y2018D01*
X2336Y2018D01*
X2336Y2020D01*
X40Y2020D01*
G37*
D02*
G36*
X40Y2020D02*
X40Y2018D01*
X2336Y2018D01*
X2336Y2020D01*
X40Y2020D01*
G37*
D02*
G36*
X40Y2020D02*
X40Y2018D01*
X2336Y2018D01*
X2336Y2020D01*
X40Y2020D01*
G37*
D02*
G36*
X40Y2020D02*
X40Y2018D01*
X2336Y2018D01*
X2336Y2020D01*
X40Y2020D01*
G37*
D02*
G36*
X40Y2020D02*
X40Y2018D01*
X2336Y2018D01*
X2336Y2020D01*
X40Y2020D01*
G37*
D02*
G36*
X40Y2020D02*
X40Y2018D01*
X2336Y2018D01*
X2336Y2020D01*
X40Y2020D01*
G37*
D02*
G36*
X40Y2020D02*
X40Y2018D01*
X2336Y2018D01*
X2336Y2020D01*
X40Y2020D01*
G37*
D02*
G36*
X40Y2020D02*
X40Y2018D01*
X2336Y2018D01*
X2336Y2020D01*
X40Y2020D01*
G37*
D02*
G36*
X40Y2020D02*
X40Y2018D01*
X2336Y2018D01*
X2336Y2020D01*
X40Y2020D01*
G37*
D02*
G36*
X40Y2020D02*
X40Y2018D01*
X2336Y2018D01*
X2336Y2020D01*
X40Y2020D01*
G37*
D02*
G36*
X2380Y2020D02*
X2380Y2018D01*
X2746Y2018D01*
X2746Y2020D01*
X2380Y2020D01*
G37*
D02*
G36*
X2380Y2020D02*
X2380Y2018D01*
X2746Y2018D01*
X2746Y2020D01*
X2380Y2020D01*
G37*
D02*
G36*
X2380Y2020D02*
X2380Y2018D01*
X2746Y2018D01*
X2746Y2020D01*
X2380Y2020D01*
G37*
D02*
G36*
X40Y2018D02*
X40Y1820D01*
X1960Y1820D01*
X1960Y1818D01*
X1966Y1818D01*
X1966Y1816D01*
X1970Y1816D01*
X1970Y1814D01*
X1974Y1814D01*
X1974Y1812D01*
X1978Y1812D01*
X1978Y1810D01*
X1980Y1810D01*
X1980Y1808D01*
X1984Y1808D01*
X1984Y1806D01*
X1986Y1806D01*
X1986Y1804D01*
X1988Y1804D01*
X1988Y1802D01*
X1990Y1802D01*
X1990Y1800D01*
X1992Y1800D01*
X1992Y1796D01*
X1994Y1796D01*
X1994Y1794D01*
X1996Y1794D01*
X1996Y1790D01*
X1998Y1790D01*
X1998Y1786D01*
X2000Y1786D01*
X2000Y1782D01*
X2002Y1782D01*
X2002Y1774D01*
X2004Y1774D01*
X2004Y1750D01*
X2002Y1750D01*
X2002Y1742D01*
X2000Y1742D01*
X2000Y1738D01*
X1998Y1738D01*
X1998Y1734D01*
X1996Y1734D01*
X1996Y1730D01*
X1994Y1730D01*
X1994Y1726D01*
X1992Y1726D01*
X1992Y1724D01*
X1990Y1724D01*
X1990Y1722D01*
X1988Y1722D01*
X1988Y1720D01*
X1986Y1720D01*
X1986Y1718D01*
X1984Y1718D01*
X1984Y1716D01*
X1982Y1716D01*
X1982Y1714D01*
X1978Y1714D01*
X1978Y1712D01*
X1976Y1712D01*
X1976Y1710D01*
X1972Y1710D01*
X1972Y1708D01*
X1968Y1708D01*
X1968Y1706D01*
X1962Y1706D01*
X1962Y1704D01*
X1952Y1704D01*
X1952Y1702D01*
X2338Y1702D01*
X2338Y2012D01*
X2336Y2012D01*
X2336Y2018D01*
X40Y2018D01*
G37*
D02*
G36*
X2382Y2018D02*
X2382Y1378D01*
X2380Y1378D01*
X2380Y1372D01*
X2378Y1372D01*
X2378Y1368D01*
X2376Y1368D01*
X2376Y1364D01*
X2374Y1364D01*
X2374Y1360D01*
X2372Y1360D01*
X2372Y1356D01*
X2370Y1356D01*
X2370Y1352D01*
X2368Y1352D01*
X2368Y1348D01*
X2366Y1348D01*
X2366Y1344D01*
X2364Y1344D01*
X2364Y1340D01*
X2362Y1340D01*
X2362Y1336D01*
X2360Y1336D01*
X2360Y1332D01*
X2358Y1332D01*
X2358Y1328D01*
X2356Y1328D01*
X2356Y1322D01*
X2354Y1322D01*
X2354Y1318D01*
X2352Y1318D01*
X2352Y1314D01*
X2350Y1314D01*
X2350Y1310D01*
X2348Y1310D01*
X2348Y1306D01*
X2346Y1306D01*
X2346Y1302D01*
X2344Y1302D01*
X2344Y1280D01*
X2346Y1280D01*
X2346Y1274D01*
X2348Y1274D01*
X2348Y1250D01*
X2346Y1250D01*
X2346Y1244D01*
X2344Y1244D01*
X2344Y1240D01*
X2342Y1240D01*
X2342Y1236D01*
X2340Y1236D01*
X2340Y1234D01*
X2338Y1234D01*
X2338Y1230D01*
X2336Y1230D01*
X2336Y1228D01*
X2334Y1228D01*
X2334Y1226D01*
X2330Y1226D01*
X2330Y1224D01*
X2328Y1224D01*
X2328Y1222D01*
X2326Y1222D01*
X2326Y1220D01*
X2322Y1220D01*
X2322Y1218D01*
X2316Y1218D01*
X2316Y1216D01*
X2310Y1216D01*
X2310Y1214D01*
X2746Y1214D01*
X2746Y2018D01*
X2382Y2018D01*
G37*
D02*
G36*
X40Y1820D02*
X40Y1702D01*
X1938Y1702D01*
X1938Y1704D01*
X1928Y1704D01*
X1928Y1706D01*
X1922Y1706D01*
X1922Y1708D01*
X1918Y1708D01*
X1918Y1710D01*
X1914Y1710D01*
X1914Y1712D01*
X1912Y1712D01*
X1912Y1714D01*
X1910Y1714D01*
X1910Y1716D01*
X1906Y1716D01*
X1906Y1718D01*
X1904Y1718D01*
X1904Y1720D01*
X1902Y1720D01*
X1902Y1722D01*
X1900Y1722D01*
X1900Y1724D01*
X1898Y1724D01*
X1898Y1728D01*
X1896Y1728D01*
X1896Y1730D01*
X1894Y1730D01*
X1894Y1734D01*
X1892Y1734D01*
X1892Y1738D01*
X1890Y1738D01*
X1890Y1744D01*
X1888Y1744D01*
X1888Y1752D01*
X1886Y1752D01*
X1886Y1772D01*
X1888Y1772D01*
X1888Y1780D01*
X1890Y1780D01*
X1890Y1786D01*
X1892Y1786D01*
X1892Y1790D01*
X1894Y1790D01*
X1894Y1792D01*
X1896Y1792D01*
X1896Y1796D01*
X1898Y1796D01*
X1898Y1798D01*
X1900Y1798D01*
X1900Y1800D01*
X1902Y1800D01*
X1902Y1804D01*
X1904Y1804D01*
X1904Y1806D01*
X1908Y1806D01*
X1908Y1808D01*
X1910Y1808D01*
X1910Y1810D01*
X1912Y1810D01*
X1912Y1812D01*
X1916Y1812D01*
X1916Y1814D01*
X1920Y1814D01*
X1920Y1816D01*
X1924Y1816D01*
X1924Y1818D01*
X1930Y1818D01*
X1930Y1820D01*
X40Y1820D01*
G37*
D02*
G36*
X40Y1702D02*
X40Y1700D01*
X2338Y1700D01*
X2338Y1702D01*
X40Y1702D01*
G37*
D02*
G36*
X40Y1702D02*
X40Y1700D01*
X2338Y1700D01*
X2338Y1702D01*
X40Y1702D01*
G37*
D02*
G36*
X40Y1700D02*
X40Y1610D01*
X948Y1610D01*
X948Y1608D01*
X958Y1608D01*
X958Y1606D01*
X964Y1606D01*
X964Y1604D01*
X968Y1604D01*
X968Y1602D01*
X972Y1602D01*
X972Y1600D01*
X974Y1600D01*
X974Y1598D01*
X976Y1598D01*
X976Y1596D01*
X978Y1596D01*
X978Y1594D01*
X980Y1594D01*
X980Y1592D01*
X982Y1592D01*
X982Y1590D01*
X984Y1590D01*
X984Y1588D01*
X986Y1588D01*
X986Y1584D01*
X988Y1584D01*
X988Y1580D01*
X990Y1580D01*
X990Y1574D01*
X992Y1574D01*
X992Y1550D01*
X990Y1550D01*
X990Y1544D01*
X988Y1544D01*
X988Y1540D01*
X986Y1540D01*
X986Y1536D01*
X984Y1536D01*
X984Y1534D01*
X982Y1534D01*
X982Y1530D01*
X980Y1530D01*
X980Y1528D01*
X978Y1528D01*
X978Y1526D01*
X974Y1526D01*
X974Y1524D01*
X972Y1524D01*
X972Y1522D01*
X970Y1522D01*
X970Y1520D01*
X966Y1520D01*
X966Y1518D01*
X960Y1518D01*
X960Y1516D01*
X954Y1516D01*
X954Y1514D01*
X2338Y1514D01*
X2338Y1700D01*
X40Y1700D01*
G37*
D02*
G36*
X40Y1610D02*
X40Y1514D01*
X538Y1514D01*
X538Y1516D01*
X530Y1516D01*
X530Y1518D01*
X524Y1518D01*
X524Y1520D01*
X522Y1520D01*
X522Y1522D01*
X518Y1522D01*
X518Y1524D01*
X516Y1524D01*
X516Y1526D01*
X512Y1526D01*
X512Y1528D01*
X510Y1528D01*
X510Y1532D01*
X508Y1532D01*
X508Y1534D01*
X506Y1534D01*
X506Y1536D01*
X504Y1536D01*
X504Y1540D01*
X502Y1540D01*
X502Y1544D01*
X500Y1544D01*
X500Y1552D01*
X498Y1552D01*
X498Y1572D01*
X500Y1572D01*
X500Y1578D01*
X502Y1578D01*
X502Y1582D01*
X504Y1582D01*
X504Y1586D01*
X506Y1586D01*
X506Y1590D01*
X508Y1590D01*
X508Y1592D01*
X510Y1592D01*
X510Y1594D01*
X512Y1594D01*
X512Y1596D01*
X514Y1596D01*
X514Y1598D01*
X516Y1598D01*
X516Y1600D01*
X518Y1600D01*
X518Y1602D01*
X522Y1602D01*
X522Y1604D01*
X526Y1604D01*
X526Y1606D01*
X532Y1606D01*
X532Y1608D01*
X542Y1608D01*
X542Y1610D01*
X40Y1610D01*
G37*
D02*
G36*
X548Y1610D02*
X548Y1608D01*
X558Y1608D01*
X558Y1606D01*
X564Y1606D01*
X564Y1604D01*
X568Y1604D01*
X568Y1602D01*
X572Y1602D01*
X572Y1600D01*
X574Y1600D01*
X574Y1598D01*
X576Y1598D01*
X576Y1596D01*
X578Y1596D01*
X578Y1594D01*
X580Y1594D01*
X580Y1592D01*
X582Y1592D01*
X582Y1590D01*
X584Y1590D01*
X584Y1588D01*
X586Y1588D01*
X586Y1584D01*
X588Y1584D01*
X588Y1580D01*
X590Y1580D01*
X590Y1574D01*
X592Y1574D01*
X592Y1550D01*
X590Y1550D01*
X590Y1544D01*
X588Y1544D01*
X588Y1540D01*
X586Y1540D01*
X586Y1536D01*
X584Y1536D01*
X584Y1534D01*
X582Y1534D01*
X582Y1530D01*
X580Y1530D01*
X580Y1528D01*
X578Y1528D01*
X578Y1526D01*
X574Y1526D01*
X574Y1524D01*
X572Y1524D01*
X572Y1522D01*
X570Y1522D01*
X570Y1520D01*
X566Y1520D01*
X566Y1518D01*
X560Y1518D01*
X560Y1516D01*
X554Y1516D01*
X554Y1514D01*
X938Y1514D01*
X938Y1516D01*
X930Y1516D01*
X930Y1518D01*
X924Y1518D01*
X924Y1520D01*
X922Y1520D01*
X922Y1522D01*
X918Y1522D01*
X918Y1524D01*
X916Y1524D01*
X916Y1526D01*
X912Y1526D01*
X912Y1528D01*
X910Y1528D01*
X910Y1532D01*
X908Y1532D01*
X908Y1534D01*
X906Y1534D01*
X906Y1536D01*
X904Y1536D01*
X904Y1540D01*
X902Y1540D01*
X902Y1544D01*
X900Y1544D01*
X900Y1552D01*
X898Y1552D01*
X898Y1572D01*
X900Y1572D01*
X900Y1578D01*
X902Y1578D01*
X902Y1582D01*
X904Y1582D01*
X904Y1586D01*
X906Y1586D01*
X906Y1590D01*
X908Y1590D01*
X908Y1592D01*
X910Y1592D01*
X910Y1594D01*
X912Y1594D01*
X912Y1596D01*
X914Y1596D01*
X914Y1598D01*
X916Y1598D01*
X916Y1600D01*
X918Y1600D01*
X918Y1602D01*
X922Y1602D01*
X922Y1604D01*
X926Y1604D01*
X926Y1606D01*
X932Y1606D01*
X932Y1608D01*
X942Y1608D01*
X942Y1610D01*
X548Y1610D01*
G37*
D02*
G36*
X40Y1514D02*
X40Y1512D01*
X2338Y1512D01*
X2338Y1514D01*
X40Y1514D01*
G37*
D02*
G36*
X40Y1514D02*
X40Y1512D01*
X2338Y1512D01*
X2338Y1514D01*
X40Y1514D01*
G37*
D02*
G36*
X40Y1514D02*
X40Y1512D01*
X2338Y1512D01*
X2338Y1514D01*
X40Y1514D01*
G37*
D02*
G36*
X40Y1512D02*
X40Y1486D01*
X2312Y1486D01*
X2312Y1484D01*
X2318Y1484D01*
X2318Y1482D01*
X2338Y1482D01*
X2338Y1512D01*
X40Y1512D01*
G37*
D02*
G36*
X40Y1486D02*
X40Y1392D01*
X2034Y1392D01*
X2034Y1394D01*
X2028Y1394D01*
X2028Y1396D01*
X2024Y1396D01*
X2024Y1398D01*
X2020Y1398D01*
X2020Y1400D01*
X2016Y1400D01*
X2016Y1402D01*
X2014Y1402D01*
X2014Y1404D01*
X2012Y1404D01*
X2012Y1406D01*
X2010Y1406D01*
X2010Y1408D01*
X2008Y1408D01*
X2008Y1410D01*
X2006Y1410D01*
X2006Y1414D01*
X2004Y1414D01*
X2004Y1418D01*
X2002Y1418D01*
X2002Y1422D01*
X2000Y1422D01*
X2000Y1428D01*
X1998Y1428D01*
X1998Y1450D01*
X2000Y1450D01*
X2000Y1456D01*
X2002Y1456D01*
X2002Y1460D01*
X2004Y1460D01*
X2004Y1464D01*
X2006Y1464D01*
X2006Y1466D01*
X2008Y1466D01*
X2008Y1470D01*
X2010Y1470D01*
X2010Y1472D01*
X2012Y1472D01*
X2012Y1474D01*
X2014Y1474D01*
X2014Y1476D01*
X2018Y1476D01*
X2018Y1478D01*
X2020Y1478D01*
X2020Y1480D01*
X2024Y1480D01*
X2024Y1482D01*
X2028Y1482D01*
X2028Y1484D01*
X2034Y1484D01*
X2034Y1486D01*
X40Y1486D01*
G37*
D02*
G36*
X2056Y1486D02*
X2056Y1484D01*
X2062Y1484D01*
X2062Y1482D01*
X2066Y1482D01*
X2066Y1480D01*
X2070Y1480D01*
X2070Y1478D01*
X2074Y1478D01*
X2074Y1476D01*
X2076Y1476D01*
X2076Y1474D01*
X2078Y1474D01*
X2078Y1472D01*
X2080Y1472D01*
X2080Y1470D01*
X2082Y1470D01*
X2082Y1468D01*
X2084Y1468D01*
X2084Y1464D01*
X2086Y1464D01*
X2086Y1460D01*
X2088Y1460D01*
X2088Y1458D01*
X2090Y1458D01*
X2090Y1450D01*
X2092Y1450D01*
X2092Y1428D01*
X2090Y1428D01*
X2090Y1420D01*
X2088Y1420D01*
X2088Y1416D01*
X2086Y1416D01*
X2086Y1414D01*
X2084Y1414D01*
X2084Y1410D01*
X2082Y1410D01*
X2082Y1408D01*
X2080Y1408D01*
X2080Y1406D01*
X2078Y1406D01*
X2078Y1404D01*
X2076Y1404D01*
X2076Y1402D01*
X2074Y1402D01*
X2074Y1400D01*
X2070Y1400D01*
X2070Y1398D01*
X2068Y1398D01*
X2068Y1396D01*
X2064Y1396D01*
X2064Y1394D01*
X2056Y1394D01*
X2056Y1392D01*
X2290Y1392D01*
X2290Y1394D01*
X2284Y1394D01*
X2284Y1396D01*
X2280Y1396D01*
X2280Y1398D01*
X2276Y1398D01*
X2276Y1400D01*
X2272Y1400D01*
X2272Y1402D01*
X2270Y1402D01*
X2270Y1404D01*
X2268Y1404D01*
X2268Y1406D01*
X2266Y1406D01*
X2266Y1408D01*
X2264Y1408D01*
X2264Y1410D01*
X2262Y1410D01*
X2262Y1414D01*
X2260Y1414D01*
X2260Y1418D01*
X2258Y1418D01*
X2258Y1422D01*
X2256Y1422D01*
X2256Y1428D01*
X2254Y1428D01*
X2254Y1450D01*
X2256Y1450D01*
X2256Y1456D01*
X2258Y1456D01*
X2258Y1460D01*
X2260Y1460D01*
X2260Y1464D01*
X2262Y1464D01*
X2262Y1466D01*
X2264Y1466D01*
X2264Y1470D01*
X2266Y1470D01*
X2266Y1472D01*
X2268Y1472D01*
X2268Y1474D01*
X2270Y1474D01*
X2270Y1476D01*
X2274Y1476D01*
X2274Y1478D01*
X2276Y1478D01*
X2276Y1480D01*
X2280Y1480D01*
X2280Y1482D01*
X2284Y1482D01*
X2284Y1484D01*
X2290Y1484D01*
X2290Y1486D01*
X2056Y1486D01*
G37*
D02*
G36*
X2312Y1394D02*
X2312Y1392D01*
X2338Y1392D01*
X2338Y1394D01*
X2312Y1394D01*
G37*
D02*
G36*
X40Y1392D02*
X40Y1390D01*
X2338Y1390D01*
X2338Y1392D01*
X40Y1392D01*
G37*
D02*
G36*
X40Y1392D02*
X40Y1390D01*
X2338Y1390D01*
X2338Y1392D01*
X40Y1392D01*
G37*
D02*
G36*
X40Y1392D02*
X40Y1390D01*
X2338Y1390D01*
X2338Y1392D01*
X40Y1392D01*
G37*
D02*
G36*
X40Y1390D02*
X40Y1310D01*
X2048Y1310D01*
X2048Y1308D01*
X2058Y1308D01*
X2058Y1306D01*
X2064Y1306D01*
X2064Y1304D01*
X2068Y1304D01*
X2068Y1302D01*
X2072Y1302D01*
X2072Y1300D01*
X2074Y1300D01*
X2074Y1298D01*
X2076Y1298D01*
X2076Y1296D01*
X2078Y1296D01*
X2078Y1294D01*
X2080Y1294D01*
X2080Y1292D01*
X2082Y1292D01*
X2082Y1290D01*
X2084Y1290D01*
X2084Y1288D01*
X2086Y1288D01*
X2086Y1284D01*
X2088Y1284D01*
X2088Y1280D01*
X2090Y1280D01*
X2090Y1274D01*
X2092Y1274D01*
X2092Y1250D01*
X2090Y1250D01*
X2090Y1244D01*
X2088Y1244D01*
X2088Y1240D01*
X2086Y1240D01*
X2086Y1236D01*
X2084Y1236D01*
X2084Y1234D01*
X2082Y1234D01*
X2082Y1230D01*
X2080Y1230D01*
X2080Y1228D01*
X2078Y1228D01*
X2078Y1226D01*
X2074Y1226D01*
X2074Y1224D01*
X2072Y1224D01*
X2072Y1222D01*
X2070Y1222D01*
X2070Y1220D01*
X2066Y1220D01*
X2066Y1218D01*
X2060Y1218D01*
X2060Y1216D01*
X2054Y1216D01*
X2054Y1214D01*
X2294Y1214D01*
X2294Y1216D01*
X2286Y1216D01*
X2286Y1218D01*
X2280Y1218D01*
X2280Y1220D01*
X2278Y1220D01*
X2278Y1222D01*
X2274Y1222D01*
X2274Y1224D01*
X2272Y1224D01*
X2272Y1226D01*
X2268Y1226D01*
X2268Y1228D01*
X2266Y1228D01*
X2266Y1232D01*
X2264Y1232D01*
X2264Y1234D01*
X2262Y1234D01*
X2262Y1236D01*
X2260Y1236D01*
X2260Y1240D01*
X2258Y1240D01*
X2258Y1244D01*
X2256Y1244D01*
X2256Y1252D01*
X2254Y1252D01*
X2254Y1272D01*
X2256Y1272D01*
X2256Y1278D01*
X2258Y1278D01*
X2258Y1284D01*
X2260Y1284D01*
X2260Y1286D01*
X2262Y1286D01*
X2262Y1290D01*
X2264Y1290D01*
X2264Y1292D01*
X2266Y1292D01*
X2266Y1294D01*
X2268Y1294D01*
X2268Y1296D01*
X2270Y1296D01*
X2270Y1298D01*
X2272Y1298D01*
X2272Y1300D01*
X2274Y1300D01*
X2274Y1302D01*
X2278Y1302D01*
X2278Y1304D01*
X2282Y1304D01*
X2282Y1306D01*
X2288Y1306D01*
X2288Y1308D01*
X2298Y1308D01*
X2298Y1310D01*
X2300Y1310D01*
X2300Y1312D01*
X2302Y1312D01*
X2302Y1316D01*
X2304Y1316D01*
X2304Y1320D01*
X2306Y1320D01*
X2306Y1324D01*
X2308Y1324D01*
X2308Y1328D01*
X2310Y1328D01*
X2310Y1332D01*
X2312Y1332D01*
X2312Y1338D01*
X2314Y1338D01*
X2314Y1342D01*
X2316Y1342D01*
X2316Y1346D01*
X2318Y1346D01*
X2318Y1350D01*
X2320Y1350D01*
X2320Y1354D01*
X2322Y1354D01*
X2322Y1358D01*
X2324Y1358D01*
X2324Y1362D01*
X2326Y1362D01*
X2326Y1366D01*
X2328Y1366D01*
X2328Y1370D01*
X2330Y1370D01*
X2330Y1374D01*
X2332Y1374D01*
X2332Y1378D01*
X2334Y1378D01*
X2334Y1382D01*
X2336Y1382D01*
X2336Y1388D01*
X2338Y1388D01*
X2338Y1390D01*
X40Y1390D01*
G37*
D02*
G36*
X40Y1310D02*
X40Y1214D01*
X538Y1214D01*
X538Y1216D01*
X530Y1216D01*
X530Y1218D01*
X524Y1218D01*
X524Y1220D01*
X522Y1220D01*
X522Y1222D01*
X518Y1222D01*
X518Y1224D01*
X516Y1224D01*
X516Y1226D01*
X512Y1226D01*
X512Y1228D01*
X510Y1228D01*
X510Y1232D01*
X508Y1232D01*
X508Y1234D01*
X506Y1234D01*
X506Y1236D01*
X504Y1236D01*
X504Y1240D01*
X502Y1240D01*
X502Y1244D01*
X500Y1244D01*
X500Y1252D01*
X498Y1252D01*
X498Y1272D01*
X500Y1272D01*
X500Y1278D01*
X502Y1278D01*
X502Y1282D01*
X504Y1282D01*
X504Y1286D01*
X506Y1286D01*
X506Y1290D01*
X508Y1290D01*
X508Y1292D01*
X510Y1292D01*
X510Y1294D01*
X512Y1294D01*
X512Y1296D01*
X514Y1296D01*
X514Y1298D01*
X516Y1298D01*
X516Y1300D01*
X518Y1300D01*
X518Y1302D01*
X522Y1302D01*
X522Y1304D01*
X526Y1304D01*
X526Y1306D01*
X532Y1306D01*
X532Y1308D01*
X542Y1308D01*
X542Y1310D01*
X40Y1310D01*
G37*
D02*
G36*
X548Y1310D02*
X548Y1308D01*
X558Y1308D01*
X558Y1306D01*
X564Y1306D01*
X564Y1304D01*
X568Y1304D01*
X568Y1302D01*
X572Y1302D01*
X572Y1300D01*
X574Y1300D01*
X574Y1298D01*
X576Y1298D01*
X576Y1296D01*
X578Y1296D01*
X578Y1294D01*
X580Y1294D01*
X580Y1292D01*
X582Y1292D01*
X582Y1290D01*
X584Y1290D01*
X584Y1288D01*
X586Y1288D01*
X586Y1284D01*
X588Y1284D01*
X588Y1280D01*
X590Y1280D01*
X590Y1274D01*
X592Y1274D01*
X592Y1250D01*
X590Y1250D01*
X590Y1244D01*
X588Y1244D01*
X588Y1240D01*
X586Y1240D01*
X586Y1236D01*
X584Y1236D01*
X584Y1234D01*
X582Y1234D01*
X582Y1230D01*
X580Y1230D01*
X580Y1228D01*
X578Y1228D01*
X578Y1226D01*
X574Y1226D01*
X574Y1224D01*
X572Y1224D01*
X572Y1222D01*
X570Y1222D01*
X570Y1220D01*
X566Y1220D01*
X566Y1218D01*
X560Y1218D01*
X560Y1216D01*
X554Y1216D01*
X554Y1214D01*
X938Y1214D01*
X938Y1216D01*
X930Y1216D01*
X930Y1218D01*
X924Y1218D01*
X924Y1220D01*
X922Y1220D01*
X922Y1222D01*
X918Y1222D01*
X918Y1224D01*
X916Y1224D01*
X916Y1226D01*
X912Y1226D01*
X912Y1228D01*
X910Y1228D01*
X910Y1232D01*
X908Y1232D01*
X908Y1234D01*
X906Y1234D01*
X906Y1236D01*
X904Y1236D01*
X904Y1240D01*
X902Y1240D01*
X902Y1244D01*
X900Y1244D01*
X900Y1252D01*
X898Y1252D01*
X898Y1272D01*
X900Y1272D01*
X900Y1278D01*
X902Y1278D01*
X902Y1282D01*
X904Y1282D01*
X904Y1286D01*
X906Y1286D01*
X906Y1290D01*
X908Y1290D01*
X908Y1292D01*
X910Y1292D01*
X910Y1294D01*
X912Y1294D01*
X912Y1296D01*
X914Y1296D01*
X914Y1298D01*
X916Y1298D01*
X916Y1300D01*
X918Y1300D01*
X918Y1302D01*
X922Y1302D01*
X922Y1304D01*
X926Y1304D01*
X926Y1306D01*
X932Y1306D01*
X932Y1308D01*
X942Y1308D01*
X942Y1310D01*
X548Y1310D01*
G37*
D02*
G36*
X948Y1310D02*
X948Y1308D01*
X1556Y1308D01*
X1556Y1306D01*
X1564Y1306D01*
X1564Y1304D01*
X1568Y1304D01*
X1568Y1302D01*
X1570Y1302D01*
X1570Y1300D01*
X1574Y1300D01*
X1574Y1298D01*
X1576Y1298D01*
X1576Y1296D01*
X1578Y1296D01*
X1578Y1294D01*
X1580Y1294D01*
X1580Y1292D01*
X1582Y1292D01*
X1582Y1290D01*
X1584Y1290D01*
X1584Y1286D01*
X1586Y1286D01*
X1586Y1284D01*
X2004Y1284D01*
X2004Y1286D01*
X2006Y1286D01*
X2006Y1290D01*
X2008Y1290D01*
X2008Y1292D01*
X2010Y1292D01*
X2010Y1294D01*
X2012Y1294D01*
X2012Y1296D01*
X2014Y1296D01*
X2014Y1298D01*
X2016Y1298D01*
X2016Y1300D01*
X2018Y1300D01*
X2018Y1302D01*
X2022Y1302D01*
X2022Y1304D01*
X2026Y1304D01*
X2026Y1306D01*
X2032Y1306D01*
X2032Y1308D01*
X2042Y1308D01*
X2042Y1310D01*
X948Y1310D01*
G37*
D02*
G36*
X958Y1308D02*
X958Y1306D01*
X964Y1306D01*
X964Y1304D01*
X968Y1304D01*
X968Y1302D01*
X972Y1302D01*
X972Y1300D01*
X974Y1300D01*
X974Y1298D01*
X976Y1298D01*
X976Y1296D01*
X978Y1296D01*
X978Y1294D01*
X980Y1294D01*
X980Y1292D01*
X982Y1292D01*
X982Y1290D01*
X984Y1290D01*
X984Y1288D01*
X986Y1288D01*
X986Y1284D01*
X988Y1284D01*
X988Y1280D01*
X990Y1280D01*
X990Y1274D01*
X992Y1274D01*
X992Y1250D01*
X990Y1250D01*
X990Y1244D01*
X988Y1244D01*
X988Y1240D01*
X986Y1240D01*
X986Y1236D01*
X984Y1236D01*
X984Y1234D01*
X982Y1234D01*
X982Y1230D01*
X980Y1230D01*
X980Y1228D01*
X978Y1228D01*
X978Y1226D01*
X974Y1226D01*
X974Y1224D01*
X972Y1224D01*
X972Y1222D01*
X970Y1222D01*
X970Y1220D01*
X966Y1220D01*
X966Y1218D01*
X960Y1218D01*
X960Y1216D01*
X954Y1216D01*
X954Y1214D01*
X1322Y1214D01*
X1322Y1266D01*
X1324Y1266D01*
X1324Y1270D01*
X1326Y1270D01*
X1326Y1274D01*
X1328Y1274D01*
X1328Y1276D01*
X1330Y1276D01*
X1330Y1278D01*
X1332Y1278D01*
X1332Y1280D01*
X1336Y1280D01*
X1336Y1282D01*
X1346Y1282D01*
X1346Y1284D01*
X1348Y1284D01*
X1348Y1288D01*
X1350Y1288D01*
X1350Y1290D01*
X1352Y1290D01*
X1352Y1294D01*
X1354Y1294D01*
X1354Y1296D01*
X1358Y1296D01*
X1358Y1298D01*
X1360Y1298D01*
X1360Y1300D01*
X1362Y1300D01*
X1362Y1302D01*
X1366Y1302D01*
X1366Y1304D01*
X1370Y1304D01*
X1370Y1306D01*
X1376Y1306D01*
X1376Y1308D01*
X958Y1308D01*
G37*
D02*
G36*
X1400Y1308D02*
X1400Y1306D01*
X1406Y1306D01*
X1406Y1304D01*
X1410Y1304D01*
X1410Y1302D01*
X1414Y1302D01*
X1414Y1300D01*
X1416Y1300D01*
X1416Y1298D01*
X1418Y1298D01*
X1418Y1296D01*
X1420Y1296D01*
X1420Y1294D01*
X1422Y1294D01*
X1422Y1292D01*
X1424Y1292D01*
X1424Y1290D01*
X1426Y1290D01*
X1426Y1288D01*
X1428Y1288D01*
X1428Y1284D01*
X1430Y1284D01*
X1430Y1280D01*
X1432Y1280D01*
X1432Y1274D01*
X1434Y1274D01*
X1434Y1250D01*
X1432Y1250D01*
X1432Y1244D01*
X1430Y1244D01*
X1430Y1240D01*
X1428Y1240D01*
X1428Y1236D01*
X1426Y1236D01*
X1426Y1234D01*
X1424Y1234D01*
X1424Y1230D01*
X1422Y1230D01*
X1422Y1228D01*
X1420Y1228D01*
X1420Y1226D01*
X1416Y1226D01*
X1416Y1224D01*
X1414Y1224D01*
X1414Y1222D01*
X1410Y1222D01*
X1410Y1220D01*
X1408Y1220D01*
X1408Y1218D01*
X1402Y1218D01*
X1402Y1216D01*
X1392Y1216D01*
X1392Y1214D01*
X1540Y1214D01*
X1540Y1216D01*
X1532Y1216D01*
X1532Y1218D01*
X1526Y1218D01*
X1526Y1220D01*
X1522Y1220D01*
X1522Y1222D01*
X1518Y1222D01*
X1518Y1224D01*
X1516Y1224D01*
X1516Y1226D01*
X1514Y1226D01*
X1514Y1228D01*
X1512Y1228D01*
X1512Y1230D01*
X1510Y1230D01*
X1510Y1232D01*
X1508Y1232D01*
X1508Y1234D01*
X1506Y1234D01*
X1506Y1238D01*
X1504Y1238D01*
X1504Y1242D01*
X1502Y1242D01*
X1502Y1246D01*
X1500Y1246D01*
X1500Y1254D01*
X1498Y1254D01*
X1498Y1270D01*
X1500Y1270D01*
X1500Y1276D01*
X1502Y1276D01*
X1502Y1282D01*
X1504Y1282D01*
X1504Y1286D01*
X1506Y1286D01*
X1506Y1288D01*
X1508Y1288D01*
X1508Y1292D01*
X1510Y1292D01*
X1510Y1294D01*
X1512Y1294D01*
X1512Y1296D01*
X1514Y1296D01*
X1514Y1298D01*
X1516Y1298D01*
X1516Y1300D01*
X1520Y1300D01*
X1520Y1302D01*
X1524Y1302D01*
X1524Y1304D01*
X1528Y1304D01*
X1528Y1306D01*
X1534Y1306D01*
X1534Y1308D01*
X1400Y1308D01*
G37*
D02*
G36*
X1586Y1240D02*
X1586Y1238D01*
X1584Y1238D01*
X1584Y1234D01*
X1582Y1234D01*
X1582Y1232D01*
X1580Y1232D01*
X1580Y1230D01*
X1578Y1230D01*
X1578Y1228D01*
X1576Y1228D01*
X1576Y1226D01*
X1574Y1226D01*
X1574Y1224D01*
X1572Y1224D01*
X1572Y1222D01*
X1568Y1222D01*
X1568Y1220D01*
X1564Y1220D01*
X1564Y1218D01*
X1558Y1218D01*
X1558Y1216D01*
X1550Y1216D01*
X1550Y1214D01*
X2038Y1214D01*
X2038Y1216D01*
X2030Y1216D01*
X2030Y1218D01*
X2024Y1218D01*
X2024Y1220D01*
X2022Y1220D01*
X2022Y1222D01*
X2018Y1222D01*
X2018Y1224D01*
X2016Y1224D01*
X2016Y1226D01*
X2012Y1226D01*
X2012Y1228D01*
X2010Y1228D01*
X2010Y1232D01*
X2008Y1232D01*
X2008Y1234D01*
X2006Y1234D01*
X2006Y1236D01*
X2004Y1236D01*
X2004Y1240D01*
X1586Y1240D01*
G37*
D02*
G36*
X40Y1214D02*
X40Y1212D01*
X1322Y1212D01*
X1322Y1214D01*
X40Y1214D01*
G37*
D02*
G36*
X40Y1214D02*
X40Y1212D01*
X1322Y1212D01*
X1322Y1214D01*
X40Y1214D01*
G37*
D02*
G36*
X40Y1214D02*
X40Y1212D01*
X1322Y1212D01*
X1322Y1214D01*
X40Y1214D01*
G37*
D02*
G36*
X1366Y1214D02*
X1366Y1212D01*
X2746Y1212D01*
X2746Y1214D01*
X1366Y1214D01*
G37*
D02*
G36*
X1366Y1214D02*
X1366Y1212D01*
X2746Y1212D01*
X2746Y1214D01*
X1366Y1214D01*
G37*
D02*
G36*
X1366Y1214D02*
X1366Y1212D01*
X2746Y1212D01*
X2746Y1214D01*
X1366Y1214D01*
G37*
D02*
G36*
X1366Y1214D02*
X1366Y1212D01*
X2746Y1212D01*
X2746Y1214D01*
X1366Y1214D01*
G37*
D02*
G36*
X40Y1212D02*
X40Y1012D01*
X148Y1012D01*
X148Y1010D01*
X158Y1010D01*
X158Y1008D01*
X164Y1008D01*
X164Y1006D01*
X168Y1006D01*
X168Y1004D01*
X172Y1004D01*
X172Y1002D01*
X174Y1002D01*
X174Y1000D01*
X178Y1000D01*
X178Y998D01*
X180Y998D01*
X180Y996D01*
X182Y996D01*
X182Y994D01*
X184Y994D01*
X184Y990D01*
X186Y990D01*
X186Y988D01*
X188Y988D01*
X188Y984D01*
X190Y984D01*
X190Y980D01*
X192Y980D01*
X192Y974D01*
X194Y974D01*
X194Y950D01*
X192Y950D01*
X192Y944D01*
X190Y944D01*
X190Y940D01*
X188Y940D01*
X188Y936D01*
X186Y936D01*
X186Y932D01*
X184Y932D01*
X184Y930D01*
X182Y930D01*
X182Y928D01*
X180Y928D01*
X180Y926D01*
X1548Y926D01*
X1548Y924D01*
X1554Y924D01*
X1554Y922D01*
X1558Y922D01*
X1558Y920D01*
X1562Y920D01*
X1562Y918D01*
X1564Y918D01*
X1564Y916D01*
X1566Y916D01*
X1566Y914D01*
X1570Y914D01*
X1570Y912D01*
X1572Y912D01*
X1572Y908D01*
X1574Y908D01*
X1574Y906D01*
X1576Y906D01*
X1576Y904D01*
X1578Y904D01*
X1578Y900D01*
X1580Y900D01*
X1580Y896D01*
X1582Y896D01*
X1582Y888D01*
X1584Y888D01*
X1584Y866D01*
X1582Y866D01*
X1582Y860D01*
X1580Y860D01*
X1580Y856D01*
X1578Y856D01*
X1578Y852D01*
X1576Y852D01*
X1576Y848D01*
X1574Y848D01*
X1574Y846D01*
X1572Y846D01*
X1572Y844D01*
X1570Y844D01*
X1570Y842D01*
X1568Y842D01*
X1568Y840D01*
X1566Y840D01*
X1566Y838D01*
X1564Y838D01*
X1564Y816D01*
X1566Y816D01*
X1566Y814D01*
X1570Y814D01*
X1570Y812D01*
X1572Y812D01*
X1572Y808D01*
X1574Y808D01*
X1574Y806D01*
X1576Y806D01*
X1576Y804D01*
X1578Y804D01*
X1578Y800D01*
X1580Y800D01*
X1580Y796D01*
X1582Y796D01*
X1582Y788D01*
X1584Y788D01*
X1584Y766D01*
X1582Y766D01*
X1582Y760D01*
X1580Y760D01*
X1580Y756D01*
X1578Y756D01*
X1578Y752D01*
X1576Y752D01*
X1576Y748D01*
X1574Y748D01*
X1574Y746D01*
X1572Y746D01*
X1572Y744D01*
X1570Y744D01*
X1570Y742D01*
X1568Y742D01*
X1568Y740D01*
X1566Y740D01*
X1566Y738D01*
X1564Y738D01*
X1564Y716D01*
X1566Y716D01*
X1566Y714D01*
X1570Y714D01*
X1570Y712D01*
X1572Y712D01*
X1572Y708D01*
X1574Y708D01*
X1574Y706D01*
X1576Y706D01*
X1576Y704D01*
X1578Y704D01*
X1578Y700D01*
X1580Y700D01*
X1580Y696D01*
X1582Y696D01*
X1582Y688D01*
X1584Y688D01*
X1584Y664D01*
X1586Y664D01*
X1586Y662D01*
X1588Y662D01*
X1588Y660D01*
X1590Y660D01*
X1590Y658D01*
X1592Y658D01*
X1592Y656D01*
X1596Y656D01*
X1596Y654D01*
X1598Y654D01*
X1598Y652D01*
X1600Y652D01*
X1600Y650D01*
X1602Y650D01*
X1602Y648D01*
X1604Y648D01*
X1604Y646D01*
X1606Y646D01*
X1606Y644D01*
X1610Y644D01*
X1610Y642D01*
X1612Y642D01*
X1612Y640D01*
X1614Y640D01*
X1614Y638D01*
X1616Y638D01*
X1616Y636D01*
X1618Y636D01*
X1618Y634D01*
X1620Y634D01*
X1620Y632D01*
X1622Y632D01*
X1622Y630D01*
X1624Y630D01*
X1624Y626D01*
X1626Y626D01*
X1626Y602D01*
X1624Y602D01*
X1624Y588D01*
X1622Y588D01*
X1622Y572D01*
X1620Y572D01*
X1620Y556D01*
X1618Y556D01*
X1618Y542D01*
X1616Y542D01*
X1616Y526D01*
X1614Y526D01*
X1614Y510D01*
X1612Y510D01*
X1612Y496D01*
X1610Y496D01*
X1610Y480D01*
X1608Y480D01*
X1608Y464D01*
X1606Y464D01*
X1606Y450D01*
X1604Y450D01*
X1604Y434D01*
X1602Y434D01*
X1602Y418D01*
X1600Y418D01*
X1600Y404D01*
X1598Y404D01*
X1598Y388D01*
X1596Y388D01*
X1596Y372D01*
X1594Y372D01*
X1594Y358D01*
X1592Y358D01*
X1592Y342D01*
X1590Y342D01*
X1590Y326D01*
X1588Y326D01*
X1588Y312D01*
X1586Y312D01*
X1586Y296D01*
X1584Y296D01*
X1584Y280D01*
X1582Y280D01*
X1582Y266D01*
X1580Y266D01*
X1580Y250D01*
X1578Y250D01*
X1578Y236D01*
X1576Y236D01*
X1576Y220D01*
X1574Y220D01*
X1574Y204D01*
X2056Y204D01*
X2056Y202D01*
X2062Y202D01*
X2062Y200D01*
X2066Y200D01*
X2066Y198D01*
X2068Y198D01*
X2068Y196D01*
X2072Y196D01*
X2072Y194D01*
X2074Y194D01*
X2074Y192D01*
X2076Y192D01*
X2076Y190D01*
X2078Y190D01*
X2078Y188D01*
X2080Y188D01*
X2080Y184D01*
X2082Y184D01*
X2082Y180D01*
X2084Y180D01*
X2084Y176D01*
X2106Y176D01*
X2106Y180D01*
X2108Y180D01*
X2108Y202D01*
X2106Y202D01*
X2106Y206D01*
X2104Y206D01*
X2104Y212D01*
X2102Y212D01*
X2102Y218D01*
X2100Y218D01*
X2100Y222D01*
X2098Y222D01*
X2098Y228D01*
X2096Y228D01*
X2096Y234D01*
X2094Y234D01*
X2094Y238D01*
X2092Y238D01*
X2092Y244D01*
X2090Y244D01*
X2090Y250D01*
X2088Y250D01*
X2088Y254D01*
X2086Y254D01*
X2086Y260D01*
X2084Y260D01*
X2084Y266D01*
X2082Y266D01*
X2082Y270D01*
X2080Y270D01*
X2080Y276D01*
X2078Y276D01*
X2078Y282D01*
X2076Y282D01*
X2076Y288D01*
X2074Y288D01*
X2074Y292D01*
X2072Y292D01*
X2072Y298D01*
X2070Y298D01*
X2070Y304D01*
X2068Y304D01*
X2068Y308D01*
X2066Y308D01*
X2066Y314D01*
X2064Y314D01*
X2064Y320D01*
X2062Y320D01*
X2062Y324D01*
X2060Y324D01*
X2060Y330D01*
X2058Y330D01*
X2058Y336D01*
X2056Y336D01*
X2056Y340D01*
X2054Y340D01*
X2054Y346D01*
X2052Y346D01*
X2052Y352D01*
X2050Y352D01*
X2050Y356D01*
X2048Y356D01*
X2048Y362D01*
X2046Y362D01*
X2046Y368D01*
X2044Y368D01*
X2044Y372D01*
X2042Y372D01*
X2042Y378D01*
X2040Y378D01*
X2040Y384D01*
X2038Y384D01*
X2038Y388D01*
X2036Y388D01*
X2036Y394D01*
X2034Y394D01*
X2034Y400D01*
X2032Y400D01*
X2032Y406D01*
X2030Y406D01*
X2030Y410D01*
X2028Y410D01*
X2028Y416D01*
X2026Y416D01*
X2026Y422D01*
X2024Y422D01*
X2024Y426D01*
X2022Y426D01*
X2022Y432D01*
X2020Y432D01*
X2020Y438D01*
X2018Y438D01*
X2018Y442D01*
X2016Y442D01*
X2016Y448D01*
X2014Y448D01*
X2014Y454D01*
X2012Y454D01*
X2012Y458D01*
X2010Y458D01*
X2010Y464D01*
X2008Y464D01*
X2008Y470D01*
X2006Y470D01*
X2006Y474D01*
X2004Y474D01*
X2004Y480D01*
X2002Y480D01*
X2002Y486D01*
X2000Y486D01*
X2000Y490D01*
X1998Y490D01*
X1998Y496D01*
X1996Y496D01*
X1996Y502D01*
X1994Y502D01*
X1994Y506D01*
X1992Y506D01*
X1992Y512D01*
X1990Y512D01*
X1990Y518D01*
X1988Y518D01*
X1988Y524D01*
X1986Y524D01*
X1986Y528D01*
X1984Y528D01*
X1984Y534D01*
X1982Y534D01*
X1982Y540D01*
X1980Y540D01*
X1980Y544D01*
X1978Y544D01*
X1978Y550D01*
X1976Y550D01*
X1976Y556D01*
X1974Y556D01*
X1974Y560D01*
X1972Y560D01*
X1972Y566D01*
X1970Y566D01*
X1970Y572D01*
X1968Y572D01*
X1968Y576D01*
X1966Y576D01*
X1966Y582D01*
X1964Y582D01*
X1964Y588D01*
X1962Y588D01*
X1962Y592D01*
X1960Y592D01*
X1960Y598D01*
X1958Y598D01*
X1958Y604D01*
X1956Y604D01*
X1956Y608D01*
X1954Y608D01*
X1954Y614D01*
X1952Y614D01*
X1952Y620D01*
X1950Y620D01*
X1950Y624D01*
X1948Y624D01*
X1948Y630D01*
X1946Y630D01*
X1946Y636D01*
X1944Y636D01*
X1944Y642D01*
X1942Y642D01*
X1942Y646D01*
X1940Y646D01*
X1940Y652D01*
X1938Y652D01*
X1938Y658D01*
X1936Y658D01*
X1936Y662D01*
X1934Y662D01*
X1934Y668D01*
X1932Y668D01*
X1932Y674D01*
X1930Y674D01*
X1930Y678D01*
X1928Y678D01*
X1928Y684D01*
X1926Y684D01*
X1926Y690D01*
X1924Y690D01*
X1924Y694D01*
X1922Y694D01*
X1922Y700D01*
X1920Y700D01*
X1920Y706D01*
X1918Y706D01*
X1918Y710D01*
X1916Y710D01*
X1916Y716D01*
X1914Y716D01*
X1914Y722D01*
X1912Y722D01*
X1912Y726D01*
X1910Y726D01*
X1910Y732D01*
X1908Y732D01*
X1908Y738D01*
X1906Y738D01*
X1906Y742D01*
X1904Y742D01*
X1904Y748D01*
X1902Y748D01*
X1902Y754D01*
X1900Y754D01*
X1900Y760D01*
X1898Y760D01*
X1898Y764D01*
X1896Y764D01*
X1896Y770D01*
X1894Y770D01*
X1894Y776D01*
X1892Y776D01*
X1892Y780D01*
X1890Y780D01*
X1890Y786D01*
X1888Y786D01*
X1888Y792D01*
X1886Y792D01*
X1886Y796D01*
X1884Y796D01*
X1884Y802D01*
X1882Y802D01*
X1882Y808D01*
X1880Y808D01*
X1880Y812D01*
X1878Y812D01*
X1878Y818D01*
X1876Y818D01*
X1876Y824D01*
X1874Y824D01*
X1874Y828D01*
X1872Y828D01*
X1872Y834D01*
X1870Y834D01*
X1870Y840D01*
X1868Y840D01*
X1868Y844D01*
X1866Y844D01*
X1866Y850D01*
X1864Y850D01*
X1864Y856D01*
X1862Y856D01*
X1862Y862D01*
X1860Y862D01*
X1860Y866D01*
X1858Y866D01*
X1858Y872D01*
X1856Y872D01*
X1856Y878D01*
X1854Y878D01*
X1854Y882D01*
X1852Y882D01*
X1852Y888D01*
X1850Y888D01*
X1850Y894D01*
X1848Y894D01*
X1848Y898D01*
X1846Y898D01*
X1846Y904D01*
X1844Y904D01*
X1844Y910D01*
X1842Y910D01*
X1842Y914D01*
X1840Y914D01*
X1840Y920D01*
X1838Y920D01*
X1838Y926D01*
X1836Y926D01*
X1836Y930D01*
X1834Y930D01*
X1834Y936D01*
X1832Y936D01*
X1832Y942D01*
X1826Y942D01*
X1826Y944D01*
X1816Y944D01*
X1816Y946D01*
X1806Y946D01*
X1806Y948D01*
X1796Y948D01*
X1796Y950D01*
X1786Y950D01*
X1786Y952D01*
X1776Y952D01*
X1776Y954D01*
X1766Y954D01*
X1766Y956D01*
X1756Y956D01*
X1756Y958D01*
X1746Y958D01*
X1746Y960D01*
X1736Y960D01*
X1736Y962D01*
X1726Y962D01*
X1726Y964D01*
X1716Y964D01*
X1716Y966D01*
X1708Y966D01*
X1708Y968D01*
X1698Y968D01*
X1698Y970D01*
X1688Y970D01*
X1688Y972D01*
X1678Y972D01*
X1678Y974D01*
X1668Y974D01*
X1668Y976D01*
X1658Y976D01*
X1658Y978D01*
X1648Y978D01*
X1648Y980D01*
X1638Y980D01*
X1638Y982D01*
X1628Y982D01*
X1628Y984D01*
X1618Y984D01*
X1618Y986D01*
X1608Y986D01*
X1608Y988D01*
X1598Y988D01*
X1598Y990D01*
X1588Y990D01*
X1588Y992D01*
X1578Y992D01*
X1578Y994D01*
X1568Y994D01*
X1568Y996D01*
X1558Y996D01*
X1558Y998D01*
X1548Y998D01*
X1548Y1000D01*
X1540Y1000D01*
X1540Y1002D01*
X1530Y1002D01*
X1530Y1004D01*
X1520Y1004D01*
X1520Y1006D01*
X1510Y1006D01*
X1510Y1008D01*
X1500Y1008D01*
X1500Y1010D01*
X1490Y1010D01*
X1490Y1012D01*
X1480Y1012D01*
X1480Y1014D01*
X1470Y1014D01*
X1470Y1016D01*
X1460Y1016D01*
X1460Y1018D01*
X1450Y1018D01*
X1450Y1020D01*
X1440Y1020D01*
X1440Y1022D01*
X1430Y1022D01*
X1430Y1024D01*
X1420Y1024D01*
X1420Y1026D01*
X1410Y1026D01*
X1410Y1028D01*
X1400Y1028D01*
X1400Y1030D01*
X1390Y1030D01*
X1390Y1032D01*
X1380Y1032D01*
X1380Y1034D01*
X1372Y1034D01*
X1372Y1036D01*
X1362Y1036D01*
X1362Y1038D01*
X1352Y1038D01*
X1352Y1040D01*
X1342Y1040D01*
X1342Y1042D01*
X1336Y1042D01*
X1336Y1044D01*
X1332Y1044D01*
X1332Y1046D01*
X1330Y1046D01*
X1330Y1048D01*
X1328Y1048D01*
X1328Y1050D01*
X1326Y1050D01*
X1326Y1052D01*
X1324Y1052D01*
X1324Y1058D01*
X1322Y1058D01*
X1322Y1212D01*
X40Y1212D01*
G37*
D02*
G36*
X1366Y1212D02*
X1366Y1080D01*
X1376Y1080D01*
X1376Y1078D01*
X1386Y1078D01*
X1386Y1076D01*
X1396Y1076D01*
X1396Y1074D01*
X1406Y1074D01*
X1406Y1072D01*
X1416Y1072D01*
X1416Y1070D01*
X1424Y1070D01*
X1424Y1068D01*
X1434Y1068D01*
X1434Y1066D01*
X1444Y1066D01*
X1444Y1064D01*
X1454Y1064D01*
X1454Y1062D01*
X1464Y1062D01*
X1464Y1060D01*
X1474Y1060D01*
X1474Y1058D01*
X1484Y1058D01*
X1484Y1056D01*
X1494Y1056D01*
X1494Y1054D01*
X1504Y1054D01*
X1504Y1052D01*
X1514Y1052D01*
X1514Y1050D01*
X1524Y1050D01*
X1524Y1048D01*
X1534Y1048D01*
X1534Y1046D01*
X1544Y1046D01*
X1544Y1044D01*
X1554Y1044D01*
X1554Y1042D01*
X1564Y1042D01*
X1564Y1040D01*
X1574Y1040D01*
X1574Y1038D01*
X1584Y1038D01*
X1584Y1036D01*
X1592Y1036D01*
X1592Y1034D01*
X1602Y1034D01*
X1602Y1032D01*
X1612Y1032D01*
X1612Y1030D01*
X1622Y1030D01*
X1622Y1028D01*
X1632Y1028D01*
X1632Y1026D01*
X1642Y1026D01*
X1642Y1024D01*
X1652Y1024D01*
X1652Y1022D01*
X1662Y1022D01*
X1662Y1020D01*
X1672Y1020D01*
X1672Y1018D01*
X1682Y1018D01*
X1682Y1016D01*
X1692Y1016D01*
X1692Y1014D01*
X1702Y1014D01*
X1702Y1012D01*
X1712Y1012D01*
X1712Y1010D01*
X1722Y1010D01*
X1722Y1008D01*
X1732Y1008D01*
X1732Y1006D01*
X1742Y1006D01*
X1742Y1004D01*
X1752Y1004D01*
X1752Y1002D01*
X1760Y1002D01*
X1760Y1000D01*
X1770Y1000D01*
X1770Y998D01*
X1780Y998D01*
X1780Y996D01*
X1790Y996D01*
X1790Y994D01*
X1800Y994D01*
X1800Y992D01*
X1810Y992D01*
X1810Y990D01*
X1820Y990D01*
X1820Y988D01*
X1830Y988D01*
X1830Y986D01*
X1840Y986D01*
X1840Y984D01*
X1850Y984D01*
X1850Y982D01*
X1856Y982D01*
X1856Y980D01*
X1860Y980D01*
X1860Y978D01*
X1862Y978D01*
X1862Y976D01*
X1864Y976D01*
X1864Y974D01*
X1866Y974D01*
X1866Y970D01*
X1868Y970D01*
X1868Y966D01*
X1870Y966D01*
X1870Y960D01*
X1872Y960D01*
X1872Y954D01*
X1874Y954D01*
X1874Y950D01*
X1876Y950D01*
X1876Y944D01*
X1878Y944D01*
X1878Y938D01*
X1880Y938D01*
X1880Y934D01*
X1882Y934D01*
X1882Y928D01*
X1884Y928D01*
X1884Y922D01*
X1886Y922D01*
X1886Y918D01*
X1888Y918D01*
X1888Y912D01*
X1890Y912D01*
X1890Y906D01*
X1892Y906D01*
X1892Y902D01*
X1894Y902D01*
X1894Y896D01*
X1896Y896D01*
X1896Y890D01*
X1898Y890D01*
X1898Y886D01*
X1900Y886D01*
X1900Y880D01*
X1902Y880D01*
X1902Y874D01*
X1904Y874D01*
X1904Y868D01*
X1906Y868D01*
X1906Y864D01*
X1908Y864D01*
X1908Y858D01*
X1910Y858D01*
X1910Y852D01*
X1912Y852D01*
X1912Y848D01*
X1914Y848D01*
X1914Y842D01*
X1916Y842D01*
X1916Y836D01*
X1918Y836D01*
X1918Y832D01*
X1920Y832D01*
X1920Y826D01*
X1922Y826D01*
X1922Y820D01*
X1924Y820D01*
X1924Y816D01*
X1926Y816D01*
X1926Y810D01*
X1928Y810D01*
X1928Y808D01*
X2280Y808D01*
X2280Y712D01*
X2746Y712D01*
X2746Y1212D01*
X1366Y1212D01*
G37*
D02*
G36*
X40Y1012D02*
X40Y412D01*
X138Y412D01*
X138Y414D01*
X130Y414D01*
X130Y416D01*
X124Y416D01*
X124Y418D01*
X120Y418D01*
X120Y420D01*
X118Y420D01*
X118Y422D01*
X114Y422D01*
X114Y424D01*
X112Y424D01*
X112Y426D01*
X110Y426D01*
X110Y428D01*
X108Y428D01*
X108Y430D01*
X106Y430D01*
X106Y434D01*
X104Y434D01*
X104Y436D01*
X102Y436D01*
X102Y440D01*
X100Y440D01*
X100Y444D01*
X98Y444D01*
X98Y452D01*
X96Y452D01*
X96Y472D01*
X98Y472D01*
X98Y478D01*
X100Y478D01*
X100Y484D01*
X102Y484D01*
X102Y486D01*
X104Y486D01*
X104Y490D01*
X106Y490D01*
X106Y492D01*
X108Y492D01*
X108Y496D01*
X110Y496D01*
X110Y498D01*
X114Y498D01*
X114Y500D01*
X116Y500D01*
X116Y502D01*
X118Y502D01*
X118Y504D01*
X122Y504D01*
X122Y506D01*
X124Y506D01*
X124Y526D01*
X120Y526D01*
X120Y528D01*
X118Y528D01*
X118Y530D01*
X116Y530D01*
X116Y532D01*
X114Y532D01*
X114Y534D01*
X112Y534D01*
X112Y536D01*
X110Y536D01*
X110Y540D01*
X108Y540D01*
X108Y544D01*
X106Y544D01*
X106Y550D01*
X104Y550D01*
X104Y558D01*
X102Y558D01*
X102Y566D01*
X104Y566D01*
X104Y574D01*
X106Y574D01*
X106Y580D01*
X108Y580D01*
X108Y584D01*
X110Y584D01*
X110Y586D01*
X112Y586D01*
X112Y590D01*
X114Y590D01*
X114Y592D01*
X116Y592D01*
X116Y594D01*
X120Y594D01*
X120Y596D01*
X122Y596D01*
X122Y598D01*
X124Y598D01*
X124Y618D01*
X120Y618D01*
X120Y620D01*
X118Y620D01*
X118Y622D01*
X114Y622D01*
X114Y624D01*
X112Y624D01*
X112Y626D01*
X110Y626D01*
X110Y628D01*
X108Y628D01*
X108Y630D01*
X106Y630D01*
X106Y634D01*
X104Y634D01*
X104Y636D01*
X102Y636D01*
X102Y640D01*
X100Y640D01*
X100Y644D01*
X98Y644D01*
X98Y652D01*
X96Y652D01*
X96Y672D01*
X98Y672D01*
X98Y678D01*
X100Y678D01*
X100Y684D01*
X102Y684D01*
X102Y686D01*
X104Y686D01*
X104Y690D01*
X106Y690D01*
X106Y692D01*
X108Y692D01*
X108Y696D01*
X110Y696D01*
X110Y698D01*
X114Y698D01*
X114Y700D01*
X116Y700D01*
X116Y702D01*
X118Y702D01*
X118Y722D01*
X114Y722D01*
X114Y724D01*
X112Y724D01*
X112Y726D01*
X110Y726D01*
X110Y728D01*
X108Y728D01*
X108Y730D01*
X106Y730D01*
X106Y734D01*
X104Y734D01*
X104Y736D01*
X102Y736D01*
X102Y740D01*
X100Y740D01*
X100Y744D01*
X98Y744D01*
X98Y752D01*
X96Y752D01*
X96Y772D01*
X98Y772D01*
X98Y778D01*
X100Y778D01*
X100Y784D01*
X102Y784D01*
X102Y786D01*
X104Y786D01*
X104Y790D01*
X106Y790D01*
X106Y792D01*
X108Y792D01*
X108Y796D01*
X110Y796D01*
X110Y798D01*
X114Y798D01*
X114Y800D01*
X116Y800D01*
X116Y802D01*
X118Y802D01*
X118Y822D01*
X114Y822D01*
X114Y824D01*
X112Y824D01*
X112Y826D01*
X110Y826D01*
X110Y828D01*
X108Y828D01*
X108Y830D01*
X106Y830D01*
X106Y834D01*
X104Y834D01*
X104Y836D01*
X102Y836D01*
X102Y840D01*
X100Y840D01*
X100Y844D01*
X98Y844D01*
X98Y852D01*
X96Y852D01*
X96Y872D01*
X98Y872D01*
X98Y878D01*
X100Y878D01*
X100Y884D01*
X102Y884D01*
X102Y886D01*
X104Y886D01*
X104Y890D01*
X106Y890D01*
X106Y892D01*
X108Y892D01*
X108Y896D01*
X110Y896D01*
X110Y898D01*
X114Y898D01*
X114Y900D01*
X116Y900D01*
X116Y902D01*
X118Y902D01*
X118Y922D01*
X114Y922D01*
X114Y924D01*
X112Y924D01*
X112Y926D01*
X110Y926D01*
X110Y928D01*
X108Y928D01*
X108Y930D01*
X106Y930D01*
X106Y934D01*
X104Y934D01*
X104Y936D01*
X102Y936D01*
X102Y940D01*
X100Y940D01*
X100Y944D01*
X98Y944D01*
X98Y952D01*
X96Y952D01*
X96Y972D01*
X98Y972D01*
X98Y978D01*
X100Y978D01*
X100Y984D01*
X102Y984D01*
X102Y986D01*
X104Y986D01*
X104Y990D01*
X106Y990D01*
X106Y992D01*
X108Y992D01*
X108Y996D01*
X110Y996D01*
X110Y998D01*
X114Y998D01*
X114Y1000D01*
X116Y1000D01*
X116Y1002D01*
X118Y1002D01*
X118Y1004D01*
X122Y1004D01*
X122Y1006D01*
X126Y1006D01*
X126Y1008D01*
X132Y1008D01*
X132Y1010D01*
X144Y1010D01*
X144Y1012D01*
X40Y1012D01*
G37*
D02*
G36*
X178Y926D02*
X178Y924D01*
X176Y924D01*
X176Y922D01*
X174Y922D01*
X174Y900D01*
X178Y900D01*
X178Y898D01*
X180Y898D01*
X180Y896D01*
X182Y896D01*
X182Y894D01*
X184Y894D01*
X184Y890D01*
X186Y890D01*
X186Y888D01*
X188Y888D01*
X188Y884D01*
X190Y884D01*
X190Y880D01*
X192Y880D01*
X192Y874D01*
X194Y874D01*
X194Y850D01*
X192Y850D01*
X192Y844D01*
X190Y844D01*
X190Y840D01*
X188Y840D01*
X188Y836D01*
X186Y836D01*
X186Y832D01*
X184Y832D01*
X184Y830D01*
X182Y830D01*
X182Y828D01*
X180Y828D01*
X180Y826D01*
X178Y826D01*
X178Y824D01*
X176Y824D01*
X176Y822D01*
X174Y822D01*
X174Y800D01*
X178Y800D01*
X178Y798D01*
X180Y798D01*
X180Y796D01*
X182Y796D01*
X182Y794D01*
X184Y794D01*
X184Y790D01*
X186Y790D01*
X186Y788D01*
X188Y788D01*
X188Y784D01*
X190Y784D01*
X190Y780D01*
X192Y780D01*
X192Y774D01*
X194Y774D01*
X194Y750D01*
X192Y750D01*
X192Y744D01*
X190Y744D01*
X190Y740D01*
X188Y740D01*
X188Y736D01*
X186Y736D01*
X186Y732D01*
X184Y732D01*
X184Y730D01*
X182Y730D01*
X182Y728D01*
X180Y728D01*
X180Y726D01*
X178Y726D01*
X178Y724D01*
X176Y724D01*
X176Y722D01*
X174Y722D01*
X174Y700D01*
X178Y700D01*
X178Y698D01*
X180Y698D01*
X180Y696D01*
X182Y696D01*
X182Y694D01*
X184Y694D01*
X184Y690D01*
X186Y690D01*
X186Y688D01*
X188Y688D01*
X188Y684D01*
X190Y684D01*
X190Y680D01*
X192Y680D01*
X192Y674D01*
X194Y674D01*
X194Y650D01*
X192Y650D01*
X192Y644D01*
X190Y644D01*
X190Y640D01*
X188Y640D01*
X188Y636D01*
X186Y636D01*
X186Y632D01*
X184Y632D01*
X184Y630D01*
X182Y630D01*
X182Y628D01*
X180Y628D01*
X180Y626D01*
X178Y626D01*
X178Y624D01*
X176Y624D01*
X176Y622D01*
X174Y622D01*
X174Y620D01*
X170Y620D01*
X170Y618D01*
X166Y618D01*
X166Y598D01*
X168Y598D01*
X168Y596D01*
X172Y596D01*
X172Y594D01*
X174Y594D01*
X174Y592D01*
X176Y592D01*
X176Y590D01*
X178Y590D01*
X178Y588D01*
X180Y588D01*
X180Y584D01*
X182Y584D01*
X182Y580D01*
X184Y580D01*
X184Y576D01*
X186Y576D01*
X186Y568D01*
X188Y568D01*
X188Y554D01*
X186Y554D01*
X186Y548D01*
X184Y548D01*
X184Y542D01*
X182Y542D01*
X182Y540D01*
X180Y540D01*
X180Y536D01*
X178Y536D01*
X178Y534D01*
X176Y534D01*
X176Y532D01*
X174Y532D01*
X174Y530D01*
X172Y530D01*
X172Y528D01*
X1526Y528D01*
X1526Y530D01*
X1518Y530D01*
X1518Y532D01*
X1514Y532D01*
X1514Y534D01*
X1510Y534D01*
X1510Y536D01*
X1506Y536D01*
X1506Y538D01*
X1504Y538D01*
X1504Y540D01*
X1502Y540D01*
X1502Y542D01*
X1500Y542D01*
X1500Y544D01*
X1498Y544D01*
X1498Y546D01*
X1496Y546D01*
X1496Y548D01*
X1494Y548D01*
X1494Y552D01*
X1492Y552D01*
X1492Y556D01*
X1490Y556D01*
X1490Y560D01*
X1488Y560D01*
X1488Y566D01*
X1486Y566D01*
X1486Y588D01*
X1488Y588D01*
X1488Y594D01*
X1490Y594D01*
X1490Y600D01*
X1492Y600D01*
X1492Y602D01*
X1494Y602D01*
X1494Y606D01*
X1496Y606D01*
X1496Y608D01*
X1498Y608D01*
X1498Y612D01*
X1500Y612D01*
X1500Y614D01*
X1504Y614D01*
X1504Y616D01*
X1506Y616D01*
X1506Y638D01*
X1504Y638D01*
X1504Y640D01*
X1502Y640D01*
X1502Y642D01*
X1500Y642D01*
X1500Y644D01*
X1498Y644D01*
X1498Y646D01*
X1496Y646D01*
X1496Y648D01*
X1494Y648D01*
X1494Y652D01*
X1492Y652D01*
X1492Y656D01*
X1490Y656D01*
X1490Y660D01*
X1488Y660D01*
X1488Y666D01*
X1486Y666D01*
X1486Y688D01*
X1488Y688D01*
X1488Y694D01*
X1490Y694D01*
X1490Y700D01*
X1492Y700D01*
X1492Y702D01*
X1494Y702D01*
X1494Y706D01*
X1496Y706D01*
X1496Y708D01*
X1498Y708D01*
X1498Y710D01*
X1500Y710D01*
X1500Y714D01*
X1504Y714D01*
X1504Y716D01*
X1506Y716D01*
X1506Y738D01*
X1504Y738D01*
X1504Y740D01*
X1502Y740D01*
X1502Y742D01*
X1500Y742D01*
X1500Y744D01*
X1498Y744D01*
X1498Y746D01*
X1496Y746D01*
X1496Y748D01*
X1494Y748D01*
X1494Y752D01*
X1492Y752D01*
X1492Y756D01*
X1490Y756D01*
X1490Y760D01*
X1488Y760D01*
X1488Y766D01*
X1486Y766D01*
X1486Y788D01*
X1488Y788D01*
X1488Y794D01*
X1490Y794D01*
X1490Y800D01*
X1492Y800D01*
X1492Y802D01*
X1494Y802D01*
X1494Y806D01*
X1496Y806D01*
X1496Y808D01*
X1498Y808D01*
X1498Y812D01*
X1500Y812D01*
X1500Y814D01*
X1504Y814D01*
X1504Y816D01*
X1506Y816D01*
X1506Y838D01*
X1504Y838D01*
X1504Y840D01*
X1502Y840D01*
X1502Y842D01*
X1500Y842D01*
X1500Y844D01*
X1498Y844D01*
X1498Y846D01*
X1496Y846D01*
X1496Y848D01*
X1494Y848D01*
X1494Y852D01*
X1492Y852D01*
X1492Y856D01*
X1490Y856D01*
X1490Y860D01*
X1488Y860D01*
X1488Y866D01*
X1486Y866D01*
X1486Y888D01*
X1488Y888D01*
X1488Y894D01*
X1490Y894D01*
X1490Y900D01*
X1492Y900D01*
X1492Y902D01*
X1494Y902D01*
X1494Y906D01*
X1496Y906D01*
X1496Y908D01*
X1498Y908D01*
X1498Y910D01*
X1500Y910D01*
X1500Y914D01*
X1504Y914D01*
X1504Y916D01*
X1506Y916D01*
X1506Y918D01*
X1508Y918D01*
X1508Y920D01*
X1512Y920D01*
X1512Y922D01*
X1516Y922D01*
X1516Y924D01*
X1522Y924D01*
X1522Y926D01*
X178Y926D01*
G37*
D02*
G36*
X1928Y808D02*
X1928Y804D01*
X1930Y804D01*
X1930Y800D01*
X1932Y800D01*
X1932Y794D01*
X1934Y794D01*
X1934Y788D01*
X1936Y788D01*
X1936Y784D01*
X1938Y784D01*
X1938Y778D01*
X1940Y778D01*
X1940Y772D01*
X1942Y772D01*
X1942Y768D01*
X1944Y768D01*
X1944Y762D01*
X1946Y762D01*
X1946Y756D01*
X1948Y756D01*
X1948Y750D01*
X1950Y750D01*
X1950Y746D01*
X1952Y746D01*
X1952Y740D01*
X1954Y740D01*
X1954Y734D01*
X1956Y734D01*
X1956Y730D01*
X1958Y730D01*
X1958Y724D01*
X1960Y724D01*
X1960Y718D01*
X1962Y718D01*
X1962Y714D01*
X1964Y714D01*
X1964Y712D01*
X2186Y712D01*
X2186Y808D01*
X1928Y808D01*
G37*
D02*
G36*
X1964Y712D02*
X1964Y710D01*
X2746Y710D01*
X2746Y712D01*
X1964Y712D01*
G37*
D02*
G36*
X1964Y712D02*
X1964Y710D01*
X2746Y710D01*
X2746Y712D01*
X1964Y712D01*
G37*
D02*
G36*
X1964Y710D02*
X1964Y708D01*
X1966Y708D01*
X1966Y702D01*
X1968Y702D01*
X1968Y698D01*
X1970Y698D01*
X1970Y692D01*
X1972Y692D01*
X1972Y686D01*
X1974Y686D01*
X1974Y682D01*
X1976Y682D01*
X1976Y676D01*
X1978Y676D01*
X1978Y670D01*
X1980Y670D01*
X1980Y666D01*
X1982Y666D01*
X1982Y660D01*
X1984Y660D01*
X1984Y654D01*
X1986Y654D01*
X1986Y650D01*
X1988Y650D01*
X1988Y644D01*
X1990Y644D01*
X1990Y638D01*
X1992Y638D01*
X1992Y632D01*
X1994Y632D01*
X1994Y628D01*
X1996Y628D01*
X1996Y622D01*
X1998Y622D01*
X1998Y616D01*
X2000Y616D01*
X2000Y612D01*
X2002Y612D01*
X2002Y610D01*
X2246Y610D01*
X2246Y608D01*
X2252Y608D01*
X2252Y606D01*
X2256Y606D01*
X2256Y604D01*
X2258Y604D01*
X2258Y602D01*
X2262Y602D01*
X2262Y600D01*
X2264Y600D01*
X2264Y598D01*
X2266Y598D01*
X2266Y596D01*
X2268Y596D01*
X2268Y594D01*
X2270Y594D01*
X2270Y592D01*
X2272Y592D01*
X2272Y588D01*
X2274Y588D01*
X2274Y586D01*
X2276Y586D01*
X2276Y582D01*
X2278Y582D01*
X2278Y576D01*
X2280Y576D01*
X2280Y552D01*
X2278Y552D01*
X2278Y544D01*
X2276Y544D01*
X2276Y542D01*
X2274Y542D01*
X2274Y538D01*
X2272Y538D01*
X2272Y534D01*
X2270Y534D01*
X2270Y532D01*
X2268Y532D01*
X2268Y530D01*
X2266Y530D01*
X2266Y528D01*
X2264Y528D01*
X2264Y526D01*
X2262Y526D01*
X2262Y524D01*
X2258Y524D01*
X2258Y522D01*
X2254Y522D01*
X2254Y520D01*
X2250Y520D01*
X2250Y518D01*
X2244Y518D01*
X2244Y516D01*
X2472Y516D01*
X2472Y520D01*
X2470Y520D01*
X2470Y524D01*
X2468Y524D01*
X2468Y530D01*
X2466Y530D01*
X2466Y536D01*
X2464Y536D01*
X2464Y542D01*
X2462Y542D01*
X2462Y548D01*
X2460Y548D01*
X2460Y554D01*
X2458Y554D01*
X2458Y560D01*
X2456Y560D01*
X2456Y566D01*
X2454Y566D01*
X2454Y572D01*
X2452Y572D01*
X2452Y578D01*
X2450Y578D01*
X2450Y584D01*
X2448Y584D01*
X2448Y588D01*
X2446Y588D01*
X2446Y594D01*
X2444Y594D01*
X2444Y600D01*
X2442Y600D01*
X2442Y606D01*
X2440Y606D01*
X2440Y612D01*
X2438Y612D01*
X2438Y616D01*
X2430Y616D01*
X2430Y618D01*
X2424Y618D01*
X2424Y620D01*
X2422Y620D01*
X2422Y622D01*
X2418Y622D01*
X2418Y624D01*
X2416Y624D01*
X2416Y626D01*
X2412Y626D01*
X2412Y628D01*
X2410Y628D01*
X2410Y632D01*
X2408Y632D01*
X2408Y634D01*
X2406Y634D01*
X2406Y636D01*
X2404Y636D01*
X2404Y640D01*
X2402Y640D01*
X2402Y644D01*
X2400Y644D01*
X2400Y652D01*
X2398Y652D01*
X2398Y672D01*
X2400Y672D01*
X2400Y678D01*
X2402Y678D01*
X2402Y682D01*
X2404Y682D01*
X2404Y686D01*
X2406Y686D01*
X2406Y690D01*
X2408Y690D01*
X2408Y692D01*
X2410Y692D01*
X2410Y694D01*
X2412Y694D01*
X2412Y696D01*
X2414Y696D01*
X2414Y698D01*
X2416Y698D01*
X2416Y700D01*
X2418Y700D01*
X2418Y702D01*
X2422Y702D01*
X2422Y704D01*
X2426Y704D01*
X2426Y706D01*
X2432Y706D01*
X2432Y708D01*
X2442Y708D01*
X2442Y710D01*
X1964Y710D01*
G37*
D02*
G36*
X2448Y710D02*
X2448Y708D01*
X2458Y708D01*
X2458Y706D01*
X2464Y706D01*
X2464Y704D01*
X2468Y704D01*
X2468Y702D01*
X2472Y702D01*
X2472Y700D01*
X2474Y700D01*
X2474Y698D01*
X2476Y698D01*
X2476Y696D01*
X2478Y696D01*
X2478Y694D01*
X2480Y694D01*
X2480Y692D01*
X2482Y692D01*
X2482Y690D01*
X2484Y690D01*
X2484Y688D01*
X2486Y688D01*
X2486Y684D01*
X2488Y684D01*
X2488Y680D01*
X2490Y680D01*
X2490Y674D01*
X2492Y674D01*
X2492Y650D01*
X2490Y650D01*
X2490Y644D01*
X2488Y644D01*
X2488Y640D01*
X2486Y640D01*
X2486Y636D01*
X2484Y636D01*
X2484Y614D01*
X2486Y614D01*
X2486Y608D01*
X2488Y608D01*
X2488Y602D01*
X2490Y602D01*
X2490Y596D01*
X2492Y596D01*
X2492Y590D01*
X2494Y590D01*
X2494Y584D01*
X2496Y584D01*
X2496Y578D01*
X2498Y578D01*
X2498Y574D01*
X2500Y574D01*
X2500Y568D01*
X2502Y568D01*
X2502Y562D01*
X2504Y562D01*
X2504Y556D01*
X2506Y556D01*
X2506Y550D01*
X2508Y550D01*
X2508Y544D01*
X2510Y544D01*
X2510Y538D01*
X2512Y538D01*
X2512Y532D01*
X2514Y532D01*
X2514Y526D01*
X2516Y526D01*
X2516Y520D01*
X2518Y520D01*
X2518Y514D01*
X2520Y514D01*
X2520Y510D01*
X2522Y510D01*
X2522Y504D01*
X2524Y504D01*
X2524Y498D01*
X2526Y498D01*
X2526Y492D01*
X2528Y492D01*
X2528Y486D01*
X2530Y486D01*
X2530Y480D01*
X2532Y480D01*
X2532Y474D01*
X2534Y474D01*
X2534Y468D01*
X2536Y468D01*
X2536Y462D01*
X2538Y462D01*
X2538Y456D01*
X2540Y456D01*
X2540Y452D01*
X2542Y452D01*
X2542Y446D01*
X2544Y446D01*
X2544Y440D01*
X2546Y440D01*
X2546Y434D01*
X2548Y434D01*
X2548Y428D01*
X2550Y428D01*
X2550Y422D01*
X2552Y422D01*
X2552Y416D01*
X2554Y416D01*
X2554Y410D01*
X2556Y410D01*
X2556Y404D01*
X2558Y404D01*
X2558Y398D01*
X2560Y398D01*
X2560Y392D01*
X2562Y392D01*
X2562Y388D01*
X2564Y388D01*
X2564Y382D01*
X2566Y382D01*
X2566Y376D01*
X2568Y376D01*
X2568Y370D01*
X2570Y370D01*
X2570Y364D01*
X2572Y364D01*
X2572Y358D01*
X2574Y358D01*
X2574Y352D01*
X2576Y352D01*
X2576Y346D01*
X2578Y346D01*
X2578Y340D01*
X2580Y340D01*
X2580Y334D01*
X2582Y334D01*
X2582Y328D01*
X2584Y328D01*
X2584Y324D01*
X2586Y324D01*
X2586Y318D01*
X2588Y318D01*
X2588Y312D01*
X2590Y312D01*
X2590Y306D01*
X2592Y306D01*
X2592Y300D01*
X2594Y300D01*
X2594Y294D01*
X2596Y294D01*
X2596Y288D01*
X2598Y288D01*
X2598Y282D01*
X2600Y282D01*
X2600Y276D01*
X2602Y276D01*
X2602Y270D01*
X2604Y270D01*
X2604Y266D01*
X2606Y266D01*
X2606Y260D01*
X2608Y260D01*
X2608Y254D01*
X2610Y254D01*
X2610Y248D01*
X2612Y248D01*
X2612Y242D01*
X2614Y242D01*
X2614Y236D01*
X2616Y236D01*
X2616Y230D01*
X2618Y230D01*
X2618Y224D01*
X2620Y224D01*
X2620Y218D01*
X2622Y218D01*
X2622Y82D01*
X2620Y82D01*
X2620Y78D01*
X2618Y78D01*
X2618Y74D01*
X2614Y74D01*
X2614Y72D01*
X2612Y72D01*
X2612Y70D01*
X2608Y70D01*
X2608Y68D01*
X2746Y68D01*
X2746Y710D01*
X2448Y710D01*
G37*
D02*
G36*
X2002Y610D02*
X2002Y606D01*
X2004Y606D01*
X2004Y600D01*
X2006Y600D01*
X2006Y596D01*
X2008Y596D01*
X2008Y590D01*
X2010Y590D01*
X2010Y584D01*
X2012Y584D01*
X2012Y580D01*
X2014Y580D01*
X2014Y574D01*
X2016Y574D01*
X2016Y568D01*
X2018Y568D01*
X2018Y564D01*
X2020Y564D01*
X2020Y558D01*
X2022Y558D01*
X2022Y552D01*
X2024Y552D01*
X2024Y548D01*
X2026Y548D01*
X2026Y542D01*
X2028Y542D01*
X2028Y536D01*
X2030Y536D01*
X2030Y530D01*
X2032Y530D01*
X2032Y526D01*
X2034Y526D01*
X2034Y520D01*
X2036Y520D01*
X2036Y516D01*
X2224Y516D01*
X2224Y518D01*
X2216Y518D01*
X2216Y520D01*
X2212Y520D01*
X2212Y522D01*
X2208Y522D01*
X2208Y524D01*
X2206Y524D01*
X2206Y526D01*
X2202Y526D01*
X2202Y528D01*
X2200Y528D01*
X2200Y530D01*
X2198Y530D01*
X2198Y532D01*
X2196Y532D01*
X2196Y536D01*
X2194Y536D01*
X2194Y538D01*
X2192Y538D01*
X2192Y542D01*
X2190Y542D01*
X2190Y546D01*
X2188Y546D01*
X2188Y552D01*
X2186Y552D01*
X2186Y574D01*
X2188Y574D01*
X2188Y580D01*
X2190Y580D01*
X2190Y584D01*
X2192Y584D01*
X2192Y588D01*
X2194Y588D01*
X2194Y592D01*
X2196Y592D01*
X2196Y594D01*
X2198Y594D01*
X2198Y596D01*
X2200Y596D01*
X2200Y598D01*
X2202Y598D01*
X2202Y600D01*
X2204Y600D01*
X2204Y602D01*
X2208Y602D01*
X2208Y604D01*
X2212Y604D01*
X2212Y606D01*
X2214Y606D01*
X2214Y608D01*
X2222Y608D01*
X2222Y610D01*
X2002Y610D01*
G37*
D02*
G36*
X1544Y530D02*
X1544Y528D01*
X1570Y528D01*
X1570Y530D01*
X1544Y530D01*
G37*
D02*
G36*
X170Y528D02*
X170Y526D01*
X1570Y526D01*
X1570Y528D01*
X170Y528D01*
G37*
D02*
G36*
X170Y528D02*
X170Y526D01*
X1570Y526D01*
X1570Y528D01*
X170Y528D01*
G37*
D02*
G36*
X166Y526D02*
X166Y506D01*
X168Y506D01*
X168Y504D01*
X172Y504D01*
X172Y502D01*
X174Y502D01*
X174Y500D01*
X178Y500D01*
X178Y498D01*
X180Y498D01*
X180Y496D01*
X182Y496D01*
X182Y494D01*
X184Y494D01*
X184Y490D01*
X186Y490D01*
X186Y488D01*
X188Y488D01*
X188Y484D01*
X190Y484D01*
X190Y480D01*
X192Y480D01*
X192Y474D01*
X194Y474D01*
X194Y450D01*
X192Y450D01*
X192Y444D01*
X190Y444D01*
X190Y440D01*
X188Y440D01*
X188Y436D01*
X186Y436D01*
X186Y432D01*
X184Y432D01*
X184Y430D01*
X182Y430D01*
X182Y428D01*
X180Y428D01*
X180Y426D01*
X178Y426D01*
X178Y424D01*
X176Y424D01*
X176Y422D01*
X174Y422D01*
X174Y420D01*
X170Y420D01*
X170Y418D01*
X166Y418D01*
X166Y416D01*
X160Y416D01*
X160Y414D01*
X152Y414D01*
X152Y412D01*
X1556Y412D01*
X1556Y422D01*
X1558Y422D01*
X1558Y438D01*
X1560Y438D01*
X1560Y452D01*
X1562Y452D01*
X1562Y468D01*
X1564Y468D01*
X1564Y484D01*
X1566Y484D01*
X1566Y498D01*
X1568Y498D01*
X1568Y514D01*
X1570Y514D01*
X1570Y526D01*
X166Y526D01*
G37*
D02*
G36*
X2036Y516D02*
X2036Y514D01*
X2472Y514D01*
X2472Y516D01*
X2036Y516D01*
G37*
D02*
G36*
X2036Y516D02*
X2036Y514D01*
X2472Y514D01*
X2472Y516D01*
X2036Y516D01*
G37*
D02*
G36*
X2038Y514D02*
X2038Y510D01*
X2040Y510D01*
X2040Y504D01*
X2042Y504D01*
X2042Y498D01*
X2044Y498D01*
X2044Y494D01*
X2046Y494D01*
X2046Y488D01*
X2048Y488D01*
X2048Y482D01*
X2050Y482D01*
X2050Y478D01*
X2052Y478D01*
X2052Y472D01*
X2054Y472D01*
X2054Y466D01*
X2056Y466D01*
X2056Y462D01*
X2058Y462D01*
X2058Y456D01*
X2060Y456D01*
X2060Y450D01*
X2062Y450D01*
X2062Y446D01*
X2064Y446D01*
X2064Y440D01*
X2066Y440D01*
X2066Y434D01*
X2068Y434D01*
X2068Y430D01*
X2070Y430D01*
X2070Y424D01*
X2072Y424D01*
X2072Y418D01*
X2074Y418D01*
X2074Y412D01*
X2076Y412D01*
X2076Y408D01*
X2078Y408D01*
X2078Y402D01*
X2080Y402D01*
X2080Y396D01*
X2082Y396D01*
X2082Y392D01*
X2084Y392D01*
X2084Y386D01*
X2086Y386D01*
X2086Y380D01*
X2088Y380D01*
X2088Y376D01*
X2090Y376D01*
X2090Y370D01*
X2092Y370D01*
X2092Y364D01*
X2094Y364D01*
X2094Y360D01*
X2096Y360D01*
X2096Y354D01*
X2098Y354D01*
X2098Y348D01*
X2100Y348D01*
X2100Y344D01*
X2102Y344D01*
X2102Y338D01*
X2104Y338D01*
X2104Y332D01*
X2106Y332D01*
X2106Y328D01*
X2108Y328D01*
X2108Y322D01*
X2110Y322D01*
X2110Y316D01*
X2112Y316D01*
X2112Y312D01*
X2114Y312D01*
X2114Y306D01*
X2116Y306D01*
X2116Y300D01*
X2118Y300D01*
X2118Y294D01*
X2120Y294D01*
X2120Y290D01*
X2122Y290D01*
X2122Y284D01*
X2124Y284D01*
X2124Y278D01*
X2126Y278D01*
X2126Y274D01*
X2128Y274D01*
X2128Y268D01*
X2130Y268D01*
X2130Y262D01*
X2132Y262D01*
X2132Y258D01*
X2134Y258D01*
X2134Y252D01*
X2136Y252D01*
X2136Y246D01*
X2138Y246D01*
X2138Y242D01*
X2140Y242D01*
X2140Y236D01*
X2142Y236D01*
X2142Y230D01*
X2144Y230D01*
X2144Y226D01*
X2146Y226D01*
X2146Y220D01*
X2148Y220D01*
X2148Y214D01*
X2150Y214D01*
X2150Y210D01*
X2152Y210D01*
X2152Y204D01*
X2556Y204D01*
X2556Y202D01*
X2578Y202D01*
X2578Y212D01*
X2576Y212D01*
X2576Y216D01*
X2574Y216D01*
X2574Y222D01*
X2572Y222D01*
X2572Y228D01*
X2570Y228D01*
X2570Y234D01*
X2568Y234D01*
X2568Y240D01*
X2566Y240D01*
X2566Y246D01*
X2564Y246D01*
X2564Y252D01*
X2562Y252D01*
X2562Y258D01*
X2560Y258D01*
X2560Y264D01*
X2558Y264D01*
X2558Y270D01*
X2556Y270D01*
X2556Y276D01*
X2554Y276D01*
X2554Y280D01*
X2552Y280D01*
X2552Y286D01*
X2550Y286D01*
X2550Y292D01*
X2548Y292D01*
X2548Y298D01*
X2546Y298D01*
X2546Y304D01*
X2544Y304D01*
X2544Y310D01*
X2542Y310D01*
X2542Y316D01*
X2540Y316D01*
X2540Y322D01*
X2538Y322D01*
X2538Y328D01*
X2536Y328D01*
X2536Y334D01*
X2534Y334D01*
X2534Y340D01*
X2532Y340D01*
X2532Y344D01*
X2530Y344D01*
X2530Y350D01*
X2528Y350D01*
X2528Y356D01*
X2526Y356D01*
X2526Y362D01*
X2524Y362D01*
X2524Y368D01*
X2522Y368D01*
X2522Y374D01*
X2520Y374D01*
X2520Y380D01*
X2518Y380D01*
X2518Y386D01*
X2516Y386D01*
X2516Y392D01*
X2514Y392D01*
X2514Y398D01*
X2512Y398D01*
X2512Y402D01*
X2510Y402D01*
X2510Y408D01*
X2508Y408D01*
X2508Y414D01*
X2506Y414D01*
X2506Y420D01*
X2504Y420D01*
X2504Y426D01*
X2502Y426D01*
X2502Y432D01*
X2500Y432D01*
X2500Y438D01*
X2498Y438D01*
X2498Y444D01*
X2496Y444D01*
X2496Y450D01*
X2494Y450D01*
X2494Y456D01*
X2492Y456D01*
X2492Y462D01*
X2490Y462D01*
X2490Y466D01*
X2488Y466D01*
X2488Y472D01*
X2486Y472D01*
X2486Y478D01*
X2484Y478D01*
X2484Y484D01*
X2482Y484D01*
X2482Y490D01*
X2480Y490D01*
X2480Y496D01*
X2478Y496D01*
X2478Y502D01*
X2476Y502D01*
X2476Y508D01*
X2474Y508D01*
X2474Y514D01*
X2038Y514D01*
G37*
D02*
G36*
X40Y412D02*
X40Y410D01*
X1556Y410D01*
X1556Y412D01*
X40Y412D01*
G37*
D02*
G36*
X40Y412D02*
X40Y410D01*
X1556Y410D01*
X1556Y412D01*
X40Y412D01*
G37*
D02*
G36*
X40Y410D02*
X40Y320D01*
X960Y320D01*
X960Y318D01*
X966Y318D01*
X966Y316D01*
X970Y316D01*
X970Y314D01*
X974Y314D01*
X974Y312D01*
X978Y312D01*
X978Y310D01*
X980Y310D01*
X980Y308D01*
X984Y308D01*
X984Y306D01*
X986Y306D01*
X986Y304D01*
X988Y304D01*
X988Y302D01*
X990Y302D01*
X990Y300D01*
X992Y300D01*
X992Y296D01*
X994Y296D01*
X994Y294D01*
X996Y294D01*
X996Y290D01*
X998Y290D01*
X998Y286D01*
X1000Y286D01*
X1000Y282D01*
X1002Y282D01*
X1002Y274D01*
X1004Y274D01*
X1004Y250D01*
X1002Y250D01*
X1002Y242D01*
X1000Y242D01*
X1000Y238D01*
X998Y238D01*
X998Y234D01*
X996Y234D01*
X996Y230D01*
X994Y230D01*
X994Y226D01*
X992Y226D01*
X992Y224D01*
X990Y224D01*
X990Y222D01*
X988Y222D01*
X988Y220D01*
X986Y220D01*
X986Y218D01*
X984Y218D01*
X984Y216D01*
X982Y216D01*
X982Y214D01*
X978Y214D01*
X978Y212D01*
X976Y212D01*
X976Y210D01*
X972Y210D01*
X972Y208D01*
X968Y208D01*
X968Y206D01*
X962Y206D01*
X962Y204D01*
X1456Y204D01*
X1456Y202D01*
X1462Y202D01*
X1462Y200D01*
X1466Y200D01*
X1466Y198D01*
X1468Y198D01*
X1468Y196D01*
X1472Y196D01*
X1472Y194D01*
X1474Y194D01*
X1474Y192D01*
X1476Y192D01*
X1476Y190D01*
X1478Y190D01*
X1478Y188D01*
X1480Y188D01*
X1480Y184D01*
X1482Y184D01*
X1482Y180D01*
X1484Y180D01*
X1484Y176D01*
X1506Y176D01*
X1506Y180D01*
X1508Y180D01*
X1508Y184D01*
X1510Y184D01*
X1510Y186D01*
X1512Y186D01*
X1512Y190D01*
X1514Y190D01*
X1514Y192D01*
X1516Y192D01*
X1516Y194D01*
X1518Y194D01*
X1518Y196D01*
X1522Y196D01*
X1522Y198D01*
X1526Y198D01*
X1526Y200D01*
X1528Y200D01*
X1528Y208D01*
X1530Y208D01*
X1530Y222D01*
X1532Y222D01*
X1532Y238D01*
X1534Y238D01*
X1534Y254D01*
X1536Y254D01*
X1536Y268D01*
X1538Y268D01*
X1538Y284D01*
X1540Y284D01*
X1540Y300D01*
X1542Y300D01*
X1542Y314D01*
X1544Y314D01*
X1544Y330D01*
X1546Y330D01*
X1546Y346D01*
X1548Y346D01*
X1548Y360D01*
X1550Y360D01*
X1550Y376D01*
X1552Y376D01*
X1552Y392D01*
X1554Y392D01*
X1554Y406D01*
X1556Y406D01*
X1556Y410D01*
X40Y410D01*
G37*
D02*
G36*
X40Y320D02*
X40Y202D01*
X738Y202D01*
X738Y204D01*
X728Y204D01*
X728Y206D01*
X722Y206D01*
X722Y208D01*
X718Y208D01*
X718Y210D01*
X714Y210D01*
X714Y212D01*
X712Y212D01*
X712Y214D01*
X710Y214D01*
X710Y216D01*
X706Y216D01*
X706Y218D01*
X704Y218D01*
X704Y220D01*
X702Y220D01*
X702Y222D01*
X700Y222D01*
X700Y224D01*
X698Y224D01*
X698Y228D01*
X696Y228D01*
X696Y230D01*
X694Y230D01*
X694Y234D01*
X692Y234D01*
X692Y238D01*
X690Y238D01*
X690Y244D01*
X688Y244D01*
X688Y252D01*
X686Y252D01*
X686Y272D01*
X688Y272D01*
X688Y280D01*
X690Y280D01*
X690Y286D01*
X692Y286D01*
X692Y290D01*
X694Y290D01*
X694Y292D01*
X696Y292D01*
X696Y296D01*
X698Y296D01*
X698Y298D01*
X700Y298D01*
X700Y300D01*
X702Y300D01*
X702Y304D01*
X704Y304D01*
X704Y306D01*
X708Y306D01*
X708Y308D01*
X710Y308D01*
X710Y310D01*
X712Y310D01*
X712Y312D01*
X716Y312D01*
X716Y314D01*
X720Y314D01*
X720Y316D01*
X724Y316D01*
X724Y318D01*
X730Y318D01*
X730Y320D01*
X40Y320D01*
G37*
D02*
G36*
X760Y320D02*
X760Y318D01*
X766Y318D01*
X766Y316D01*
X770Y316D01*
X770Y314D01*
X774Y314D01*
X774Y312D01*
X778Y312D01*
X778Y310D01*
X780Y310D01*
X780Y308D01*
X784Y308D01*
X784Y306D01*
X786Y306D01*
X786Y304D01*
X788Y304D01*
X788Y302D01*
X790Y302D01*
X790Y300D01*
X792Y300D01*
X792Y296D01*
X794Y296D01*
X794Y294D01*
X796Y294D01*
X796Y290D01*
X798Y290D01*
X798Y286D01*
X800Y286D01*
X800Y282D01*
X802Y282D01*
X802Y274D01*
X804Y274D01*
X804Y250D01*
X802Y250D01*
X802Y242D01*
X800Y242D01*
X800Y238D01*
X798Y238D01*
X798Y234D01*
X796Y234D01*
X796Y230D01*
X794Y230D01*
X794Y226D01*
X792Y226D01*
X792Y224D01*
X790Y224D01*
X790Y222D01*
X788Y222D01*
X788Y220D01*
X786Y220D01*
X786Y218D01*
X784Y218D01*
X784Y216D01*
X782Y216D01*
X782Y214D01*
X778Y214D01*
X778Y212D01*
X776Y212D01*
X776Y210D01*
X772Y210D01*
X772Y208D01*
X768Y208D01*
X768Y206D01*
X762Y206D01*
X762Y204D01*
X752Y204D01*
X752Y202D01*
X938Y202D01*
X938Y204D01*
X928Y204D01*
X928Y206D01*
X922Y206D01*
X922Y208D01*
X918Y208D01*
X918Y210D01*
X914Y210D01*
X914Y212D01*
X912Y212D01*
X912Y214D01*
X910Y214D01*
X910Y216D01*
X906Y216D01*
X906Y218D01*
X904Y218D01*
X904Y220D01*
X902Y220D01*
X902Y222D01*
X900Y222D01*
X900Y224D01*
X898Y224D01*
X898Y228D01*
X896Y228D01*
X896Y230D01*
X894Y230D01*
X894Y234D01*
X892Y234D01*
X892Y238D01*
X890Y238D01*
X890Y244D01*
X888Y244D01*
X888Y252D01*
X886Y252D01*
X886Y272D01*
X888Y272D01*
X888Y280D01*
X890Y280D01*
X890Y286D01*
X892Y286D01*
X892Y290D01*
X894Y290D01*
X894Y292D01*
X896Y292D01*
X896Y296D01*
X898Y296D01*
X898Y298D01*
X900Y298D01*
X900Y300D01*
X902Y300D01*
X902Y304D01*
X904Y304D01*
X904Y306D01*
X908Y306D01*
X908Y308D01*
X910Y308D01*
X910Y310D01*
X912Y310D01*
X912Y312D01*
X916Y312D01*
X916Y314D01*
X920Y314D01*
X920Y316D01*
X924Y316D01*
X924Y318D01*
X930Y318D01*
X930Y320D01*
X760Y320D01*
G37*
D02*
G36*
X952Y204D02*
X952Y202D01*
X1136Y202D01*
X1136Y204D01*
X952Y204D01*
G37*
D02*
G36*
X1156Y204D02*
X1156Y202D01*
X1162Y202D01*
X1162Y200D01*
X1166Y200D01*
X1166Y198D01*
X1168Y198D01*
X1168Y196D01*
X1172Y196D01*
X1172Y194D01*
X1174Y194D01*
X1174Y192D01*
X1176Y192D01*
X1176Y190D01*
X1178Y190D01*
X1178Y188D01*
X1180Y188D01*
X1180Y184D01*
X1182Y184D01*
X1182Y180D01*
X1184Y180D01*
X1184Y176D01*
X1206Y176D01*
X1206Y180D01*
X1208Y180D01*
X1208Y184D01*
X1210Y184D01*
X1210Y186D01*
X1212Y186D01*
X1212Y190D01*
X1214Y190D01*
X1214Y192D01*
X1216Y192D01*
X1216Y194D01*
X1218Y194D01*
X1218Y196D01*
X1222Y196D01*
X1222Y198D01*
X1226Y198D01*
X1226Y200D01*
X1228Y200D01*
X1228Y202D01*
X1236Y202D01*
X1236Y204D01*
X1156Y204D01*
G37*
D02*
G36*
X1256Y204D02*
X1256Y202D01*
X1262Y202D01*
X1262Y200D01*
X1266Y200D01*
X1266Y198D01*
X1268Y198D01*
X1268Y196D01*
X1272Y196D01*
X1272Y194D01*
X1274Y194D01*
X1274Y192D01*
X1276Y192D01*
X1276Y190D01*
X1278Y190D01*
X1278Y188D01*
X1280Y188D01*
X1280Y184D01*
X1282Y184D01*
X1282Y180D01*
X1284Y180D01*
X1284Y176D01*
X1306Y176D01*
X1306Y180D01*
X1308Y180D01*
X1308Y184D01*
X1310Y184D01*
X1310Y186D01*
X1312Y186D01*
X1312Y190D01*
X1314Y190D01*
X1314Y192D01*
X1316Y192D01*
X1316Y194D01*
X1318Y194D01*
X1318Y196D01*
X1322Y196D01*
X1322Y198D01*
X1326Y198D01*
X1326Y200D01*
X1328Y200D01*
X1328Y202D01*
X1336Y202D01*
X1336Y204D01*
X1256Y204D01*
G37*
D02*
G36*
X1356Y204D02*
X1356Y202D01*
X1362Y202D01*
X1362Y200D01*
X1366Y200D01*
X1366Y198D01*
X1368Y198D01*
X1368Y196D01*
X1372Y196D01*
X1372Y194D01*
X1374Y194D01*
X1374Y192D01*
X1376Y192D01*
X1376Y190D01*
X1378Y190D01*
X1378Y188D01*
X1380Y188D01*
X1380Y184D01*
X1382Y184D01*
X1382Y180D01*
X1384Y180D01*
X1384Y176D01*
X1406Y176D01*
X1406Y180D01*
X1408Y180D01*
X1408Y184D01*
X1410Y184D01*
X1410Y186D01*
X1412Y186D01*
X1412Y190D01*
X1414Y190D01*
X1414Y192D01*
X1416Y192D01*
X1416Y194D01*
X1418Y194D01*
X1418Y196D01*
X1422Y196D01*
X1422Y198D01*
X1426Y198D01*
X1426Y200D01*
X1428Y200D01*
X1428Y202D01*
X1436Y202D01*
X1436Y204D01*
X1356Y204D01*
G37*
D02*
G36*
X1574Y204D02*
X1574Y192D01*
X1576Y192D01*
X1576Y190D01*
X1578Y190D01*
X1578Y188D01*
X1580Y188D01*
X1580Y184D01*
X1582Y184D01*
X1582Y180D01*
X1584Y180D01*
X1584Y176D01*
X1606Y176D01*
X1606Y180D01*
X1608Y180D01*
X1608Y184D01*
X1610Y184D01*
X1610Y186D01*
X1612Y186D01*
X1612Y190D01*
X1614Y190D01*
X1614Y192D01*
X1616Y192D01*
X1616Y194D01*
X1618Y194D01*
X1618Y196D01*
X1622Y196D01*
X1622Y198D01*
X1626Y198D01*
X1626Y200D01*
X1628Y200D01*
X1628Y202D01*
X1636Y202D01*
X1636Y204D01*
X1574Y204D01*
G37*
D02*
G36*
X1656Y204D02*
X1656Y202D01*
X1662Y202D01*
X1662Y200D01*
X1666Y200D01*
X1666Y198D01*
X1668Y198D01*
X1668Y196D01*
X1672Y196D01*
X1672Y194D01*
X1674Y194D01*
X1674Y192D01*
X1676Y192D01*
X1676Y190D01*
X1678Y190D01*
X1678Y188D01*
X1680Y188D01*
X1680Y184D01*
X1682Y184D01*
X1682Y180D01*
X1684Y180D01*
X1684Y176D01*
X1706Y176D01*
X1706Y180D01*
X1708Y180D01*
X1708Y184D01*
X1710Y184D01*
X1710Y186D01*
X1712Y186D01*
X1712Y190D01*
X1714Y190D01*
X1714Y192D01*
X1716Y192D01*
X1716Y194D01*
X1718Y194D01*
X1718Y196D01*
X1722Y196D01*
X1722Y198D01*
X1726Y198D01*
X1726Y200D01*
X1728Y200D01*
X1728Y202D01*
X1736Y202D01*
X1736Y204D01*
X1656Y204D01*
G37*
D02*
G36*
X1756Y204D02*
X1756Y202D01*
X1762Y202D01*
X1762Y200D01*
X1766Y200D01*
X1766Y198D01*
X1768Y198D01*
X1768Y196D01*
X1772Y196D01*
X1772Y194D01*
X1774Y194D01*
X1774Y192D01*
X1776Y192D01*
X1776Y190D01*
X1778Y190D01*
X1778Y188D01*
X1780Y188D01*
X1780Y184D01*
X1782Y184D01*
X1782Y180D01*
X1784Y180D01*
X1784Y176D01*
X1806Y176D01*
X1806Y180D01*
X1808Y180D01*
X1808Y184D01*
X1810Y184D01*
X1810Y186D01*
X1812Y186D01*
X1812Y190D01*
X1814Y190D01*
X1814Y192D01*
X1816Y192D01*
X1816Y194D01*
X1818Y194D01*
X1818Y196D01*
X1822Y196D01*
X1822Y198D01*
X1826Y198D01*
X1826Y200D01*
X1828Y200D01*
X1828Y202D01*
X1836Y202D01*
X1836Y204D01*
X1756Y204D01*
G37*
D02*
G36*
X1856Y204D02*
X1856Y202D01*
X1862Y202D01*
X1862Y200D01*
X1866Y200D01*
X1866Y198D01*
X1868Y198D01*
X1868Y196D01*
X1872Y196D01*
X1872Y194D01*
X1874Y194D01*
X1874Y192D01*
X1876Y192D01*
X1876Y190D01*
X1878Y190D01*
X1878Y188D01*
X1880Y188D01*
X1880Y184D01*
X1882Y184D01*
X1882Y180D01*
X1884Y180D01*
X1884Y176D01*
X1886Y176D01*
X1886Y170D01*
X1888Y170D01*
X1888Y154D01*
X1886Y154D01*
X1886Y146D01*
X1884Y146D01*
X1884Y142D01*
X1882Y142D01*
X1882Y138D01*
X1880Y138D01*
X1880Y136D01*
X1878Y136D01*
X1878Y134D01*
X1876Y134D01*
X1876Y132D01*
X1874Y132D01*
X1874Y130D01*
X1872Y130D01*
X1872Y128D01*
X1870Y128D01*
X1870Y126D01*
X1866Y126D01*
X1866Y124D01*
X1862Y124D01*
X1862Y122D01*
X1858Y122D01*
X1858Y120D01*
X2034Y120D01*
X2034Y122D01*
X2028Y122D01*
X2028Y124D01*
X2024Y124D01*
X2024Y126D01*
X2020Y126D01*
X2020Y128D01*
X2018Y128D01*
X2018Y130D01*
X2016Y130D01*
X2016Y132D01*
X2014Y132D01*
X2014Y134D01*
X2012Y134D01*
X2012Y136D01*
X2010Y136D01*
X2010Y140D01*
X2008Y140D01*
X2008Y144D01*
X2006Y144D01*
X2006Y148D01*
X2004Y148D01*
X2004Y156D01*
X2002Y156D01*
X2002Y166D01*
X2004Y166D01*
X2004Y176D01*
X2006Y176D01*
X2006Y180D01*
X2008Y180D01*
X2008Y184D01*
X2010Y184D01*
X2010Y186D01*
X2012Y186D01*
X2012Y190D01*
X2014Y190D01*
X2014Y192D01*
X2016Y192D01*
X2016Y194D01*
X2018Y194D01*
X2018Y196D01*
X2022Y196D01*
X2022Y198D01*
X2026Y198D01*
X2026Y200D01*
X2028Y200D01*
X2028Y202D01*
X2036Y202D01*
X2036Y204D01*
X1856Y204D01*
G37*
D02*
G36*
X2156Y204D02*
X2156Y202D01*
X2162Y202D01*
X2162Y200D01*
X2166Y200D01*
X2166Y198D01*
X2168Y198D01*
X2168Y196D01*
X2172Y196D01*
X2172Y194D01*
X2174Y194D01*
X2174Y192D01*
X2176Y192D01*
X2176Y190D01*
X2178Y190D01*
X2178Y188D01*
X2180Y188D01*
X2180Y184D01*
X2182Y184D01*
X2182Y180D01*
X2184Y180D01*
X2184Y176D01*
X2206Y176D01*
X2206Y180D01*
X2208Y180D01*
X2208Y184D01*
X2210Y184D01*
X2210Y186D01*
X2212Y186D01*
X2212Y190D01*
X2214Y190D01*
X2214Y192D01*
X2216Y192D01*
X2216Y194D01*
X2218Y194D01*
X2218Y196D01*
X2222Y196D01*
X2222Y198D01*
X2226Y198D01*
X2226Y200D01*
X2228Y200D01*
X2228Y202D01*
X2236Y202D01*
X2236Y204D01*
X2156Y204D01*
G37*
D02*
G36*
X2256Y204D02*
X2256Y202D01*
X2262Y202D01*
X2262Y200D01*
X2266Y200D01*
X2266Y198D01*
X2268Y198D01*
X2268Y196D01*
X2272Y196D01*
X2272Y194D01*
X2274Y194D01*
X2274Y192D01*
X2276Y192D01*
X2276Y190D01*
X2278Y190D01*
X2278Y188D01*
X2280Y188D01*
X2280Y184D01*
X2282Y184D01*
X2282Y180D01*
X2284Y180D01*
X2284Y176D01*
X2306Y176D01*
X2306Y180D01*
X2308Y180D01*
X2308Y184D01*
X2310Y184D01*
X2310Y186D01*
X2312Y186D01*
X2312Y190D01*
X2314Y190D01*
X2314Y192D01*
X2316Y192D01*
X2316Y194D01*
X2318Y194D01*
X2318Y196D01*
X2322Y196D01*
X2322Y198D01*
X2326Y198D01*
X2326Y200D01*
X2328Y200D01*
X2328Y202D01*
X2336Y202D01*
X2336Y204D01*
X2256Y204D01*
G37*
D02*
G36*
X2356Y204D02*
X2356Y202D01*
X2362Y202D01*
X2362Y200D01*
X2366Y200D01*
X2366Y198D01*
X2368Y198D01*
X2368Y196D01*
X2372Y196D01*
X2372Y194D01*
X2374Y194D01*
X2374Y192D01*
X2376Y192D01*
X2376Y190D01*
X2378Y190D01*
X2378Y188D01*
X2380Y188D01*
X2380Y184D01*
X2382Y184D01*
X2382Y180D01*
X2384Y180D01*
X2384Y176D01*
X2406Y176D01*
X2406Y180D01*
X2408Y180D01*
X2408Y184D01*
X2410Y184D01*
X2410Y186D01*
X2412Y186D01*
X2412Y190D01*
X2414Y190D01*
X2414Y192D01*
X2416Y192D01*
X2416Y194D01*
X2418Y194D01*
X2418Y196D01*
X2422Y196D01*
X2422Y198D01*
X2426Y198D01*
X2426Y200D01*
X2428Y200D01*
X2428Y202D01*
X2436Y202D01*
X2436Y204D01*
X2356Y204D01*
G37*
D02*
G36*
X2456Y204D02*
X2456Y202D01*
X2462Y202D01*
X2462Y200D01*
X2466Y200D01*
X2466Y198D01*
X2468Y198D01*
X2468Y196D01*
X2472Y196D01*
X2472Y194D01*
X2474Y194D01*
X2474Y192D01*
X2476Y192D01*
X2476Y190D01*
X2478Y190D01*
X2478Y188D01*
X2480Y188D01*
X2480Y184D01*
X2482Y184D01*
X2482Y180D01*
X2484Y180D01*
X2484Y176D01*
X2506Y176D01*
X2506Y180D01*
X2508Y180D01*
X2508Y184D01*
X2510Y184D01*
X2510Y186D01*
X2512Y186D01*
X2512Y190D01*
X2514Y190D01*
X2514Y192D01*
X2516Y192D01*
X2516Y194D01*
X2518Y194D01*
X2518Y196D01*
X2522Y196D01*
X2522Y198D01*
X2526Y198D01*
X2526Y200D01*
X2528Y200D01*
X2528Y202D01*
X2536Y202D01*
X2536Y204D01*
X2456Y204D01*
G37*
D02*
G36*
X40Y202D02*
X40Y200D01*
X1128Y200D01*
X1128Y202D01*
X40Y202D01*
G37*
D02*
G36*
X40Y202D02*
X40Y200D01*
X1128Y200D01*
X1128Y202D01*
X40Y202D01*
G37*
D02*
G36*
X40Y202D02*
X40Y200D01*
X1128Y200D01*
X1128Y202D01*
X40Y202D01*
G37*
D02*
G36*
X40Y200D02*
X40Y120D01*
X1134Y120D01*
X1134Y122D01*
X1128Y122D01*
X1128Y124D01*
X1124Y124D01*
X1124Y126D01*
X1120Y126D01*
X1120Y128D01*
X1118Y128D01*
X1118Y130D01*
X1116Y130D01*
X1116Y132D01*
X1114Y132D01*
X1114Y134D01*
X1112Y134D01*
X1112Y136D01*
X1110Y136D01*
X1110Y140D01*
X1108Y140D01*
X1108Y144D01*
X1106Y144D01*
X1106Y148D01*
X1104Y148D01*
X1104Y156D01*
X1102Y156D01*
X1102Y168D01*
X1104Y168D01*
X1104Y176D01*
X1106Y176D01*
X1106Y180D01*
X1108Y180D01*
X1108Y184D01*
X1110Y184D01*
X1110Y186D01*
X1112Y186D01*
X1112Y190D01*
X1114Y190D01*
X1114Y192D01*
X1116Y192D01*
X1116Y194D01*
X1118Y194D01*
X1118Y196D01*
X1122Y196D01*
X1122Y198D01*
X1126Y198D01*
X1126Y200D01*
X40Y200D01*
G37*
D02*
G36*
X1186Y148D02*
X1186Y146D01*
X1184Y146D01*
X1184Y142D01*
X1182Y142D01*
X1182Y138D01*
X1180Y138D01*
X1180Y136D01*
X1178Y136D01*
X1178Y134D01*
X1176Y134D01*
X1176Y132D01*
X1174Y132D01*
X1174Y130D01*
X1172Y130D01*
X1172Y128D01*
X1170Y128D01*
X1170Y126D01*
X1166Y126D01*
X1166Y124D01*
X1162Y124D01*
X1162Y122D01*
X1158Y122D01*
X1158Y120D01*
X1234Y120D01*
X1234Y122D01*
X1228Y122D01*
X1228Y124D01*
X1224Y124D01*
X1224Y126D01*
X1220Y126D01*
X1220Y128D01*
X1218Y128D01*
X1218Y130D01*
X1216Y130D01*
X1216Y132D01*
X1214Y132D01*
X1214Y134D01*
X1212Y134D01*
X1212Y136D01*
X1210Y136D01*
X1210Y140D01*
X1208Y140D01*
X1208Y144D01*
X1206Y144D01*
X1206Y148D01*
X1186Y148D01*
G37*
D02*
G36*
X1286Y148D02*
X1286Y146D01*
X1284Y146D01*
X1284Y142D01*
X1282Y142D01*
X1282Y138D01*
X1280Y138D01*
X1280Y136D01*
X1278Y136D01*
X1278Y134D01*
X1276Y134D01*
X1276Y132D01*
X1274Y132D01*
X1274Y130D01*
X1272Y130D01*
X1272Y128D01*
X1270Y128D01*
X1270Y126D01*
X1266Y126D01*
X1266Y124D01*
X1262Y124D01*
X1262Y122D01*
X1258Y122D01*
X1258Y120D01*
X1334Y120D01*
X1334Y122D01*
X1328Y122D01*
X1328Y124D01*
X1324Y124D01*
X1324Y126D01*
X1320Y126D01*
X1320Y128D01*
X1318Y128D01*
X1318Y130D01*
X1316Y130D01*
X1316Y132D01*
X1314Y132D01*
X1314Y134D01*
X1312Y134D01*
X1312Y136D01*
X1310Y136D01*
X1310Y140D01*
X1308Y140D01*
X1308Y144D01*
X1306Y144D01*
X1306Y148D01*
X1286Y148D01*
G37*
D02*
G36*
X1386Y148D02*
X1386Y146D01*
X1384Y146D01*
X1384Y142D01*
X1382Y142D01*
X1382Y138D01*
X1380Y138D01*
X1380Y136D01*
X1378Y136D01*
X1378Y134D01*
X1376Y134D01*
X1376Y132D01*
X1374Y132D01*
X1374Y130D01*
X1372Y130D01*
X1372Y128D01*
X1370Y128D01*
X1370Y126D01*
X1366Y126D01*
X1366Y124D01*
X1362Y124D01*
X1362Y122D01*
X1358Y122D01*
X1358Y120D01*
X1434Y120D01*
X1434Y122D01*
X1428Y122D01*
X1428Y124D01*
X1424Y124D01*
X1424Y126D01*
X1420Y126D01*
X1420Y128D01*
X1418Y128D01*
X1418Y130D01*
X1416Y130D01*
X1416Y132D01*
X1414Y132D01*
X1414Y134D01*
X1412Y134D01*
X1412Y136D01*
X1410Y136D01*
X1410Y140D01*
X1408Y140D01*
X1408Y144D01*
X1406Y144D01*
X1406Y148D01*
X1386Y148D01*
G37*
D02*
G36*
X1486Y148D02*
X1486Y146D01*
X1484Y146D01*
X1484Y142D01*
X1482Y142D01*
X1482Y138D01*
X1480Y138D01*
X1480Y136D01*
X1478Y136D01*
X1478Y134D01*
X1476Y134D01*
X1476Y132D01*
X1474Y132D01*
X1474Y130D01*
X1472Y130D01*
X1472Y128D01*
X1470Y128D01*
X1470Y126D01*
X1466Y126D01*
X1466Y124D01*
X1462Y124D01*
X1462Y122D01*
X1458Y122D01*
X1458Y120D01*
X1534Y120D01*
X1534Y122D01*
X1528Y122D01*
X1528Y124D01*
X1524Y124D01*
X1524Y126D01*
X1520Y126D01*
X1520Y128D01*
X1518Y128D01*
X1518Y130D01*
X1516Y130D01*
X1516Y132D01*
X1514Y132D01*
X1514Y134D01*
X1512Y134D01*
X1512Y136D01*
X1510Y136D01*
X1510Y140D01*
X1508Y140D01*
X1508Y144D01*
X1506Y144D01*
X1506Y148D01*
X1486Y148D01*
G37*
D02*
G36*
X1586Y148D02*
X1586Y146D01*
X1584Y146D01*
X1584Y142D01*
X1582Y142D01*
X1582Y138D01*
X1580Y138D01*
X1580Y136D01*
X1578Y136D01*
X1578Y134D01*
X1576Y134D01*
X1576Y132D01*
X1574Y132D01*
X1574Y130D01*
X1572Y130D01*
X1572Y128D01*
X1570Y128D01*
X1570Y126D01*
X1566Y126D01*
X1566Y124D01*
X1562Y124D01*
X1562Y122D01*
X1558Y122D01*
X1558Y120D01*
X1634Y120D01*
X1634Y122D01*
X1628Y122D01*
X1628Y124D01*
X1624Y124D01*
X1624Y126D01*
X1620Y126D01*
X1620Y128D01*
X1618Y128D01*
X1618Y130D01*
X1616Y130D01*
X1616Y132D01*
X1614Y132D01*
X1614Y134D01*
X1612Y134D01*
X1612Y136D01*
X1610Y136D01*
X1610Y140D01*
X1608Y140D01*
X1608Y144D01*
X1606Y144D01*
X1606Y148D01*
X1586Y148D01*
G37*
D02*
G36*
X1686Y148D02*
X1686Y146D01*
X1684Y146D01*
X1684Y142D01*
X1682Y142D01*
X1682Y138D01*
X1680Y138D01*
X1680Y136D01*
X1678Y136D01*
X1678Y134D01*
X1676Y134D01*
X1676Y132D01*
X1674Y132D01*
X1674Y130D01*
X1672Y130D01*
X1672Y128D01*
X1670Y128D01*
X1670Y126D01*
X1666Y126D01*
X1666Y124D01*
X1662Y124D01*
X1662Y122D01*
X1658Y122D01*
X1658Y120D01*
X1734Y120D01*
X1734Y122D01*
X1728Y122D01*
X1728Y124D01*
X1724Y124D01*
X1724Y126D01*
X1720Y126D01*
X1720Y128D01*
X1718Y128D01*
X1718Y130D01*
X1716Y130D01*
X1716Y132D01*
X1714Y132D01*
X1714Y134D01*
X1712Y134D01*
X1712Y136D01*
X1710Y136D01*
X1710Y140D01*
X1708Y140D01*
X1708Y144D01*
X1706Y144D01*
X1706Y148D01*
X1686Y148D01*
G37*
D02*
G36*
X1786Y148D02*
X1786Y146D01*
X1784Y146D01*
X1784Y142D01*
X1782Y142D01*
X1782Y138D01*
X1780Y138D01*
X1780Y136D01*
X1778Y136D01*
X1778Y134D01*
X1776Y134D01*
X1776Y132D01*
X1774Y132D01*
X1774Y130D01*
X1772Y130D01*
X1772Y128D01*
X1770Y128D01*
X1770Y126D01*
X1766Y126D01*
X1766Y124D01*
X1762Y124D01*
X1762Y122D01*
X1758Y122D01*
X1758Y120D01*
X1834Y120D01*
X1834Y122D01*
X1828Y122D01*
X1828Y124D01*
X1824Y124D01*
X1824Y126D01*
X1820Y126D01*
X1820Y128D01*
X1818Y128D01*
X1818Y130D01*
X1816Y130D01*
X1816Y132D01*
X1814Y132D01*
X1814Y134D01*
X1812Y134D01*
X1812Y136D01*
X1810Y136D01*
X1810Y140D01*
X1808Y140D01*
X1808Y144D01*
X1806Y144D01*
X1806Y148D01*
X1786Y148D01*
G37*
D02*
G36*
X40Y120D02*
X40Y118D01*
X2048Y118D01*
X2048Y120D01*
X40Y120D01*
G37*
D02*
G36*
X40Y120D02*
X40Y118D01*
X2048Y118D01*
X2048Y120D01*
X40Y120D01*
G37*
D02*
G36*
X40Y120D02*
X40Y118D01*
X2048Y118D01*
X2048Y120D01*
X40Y120D01*
G37*
D02*
G36*
X40Y120D02*
X40Y118D01*
X2048Y118D01*
X2048Y120D01*
X40Y120D01*
G37*
D02*
G36*
X40Y120D02*
X40Y118D01*
X2048Y118D01*
X2048Y120D01*
X40Y120D01*
G37*
D02*
G36*
X40Y120D02*
X40Y118D01*
X2048Y118D01*
X2048Y120D01*
X40Y120D01*
G37*
D02*
G36*
X40Y120D02*
X40Y118D01*
X2048Y118D01*
X2048Y120D01*
X40Y120D01*
G37*
D02*
G36*
X40Y120D02*
X40Y118D01*
X2048Y118D01*
X2048Y120D01*
X40Y120D01*
G37*
D02*
G36*
X40Y120D02*
X40Y118D01*
X2048Y118D01*
X2048Y120D01*
X40Y120D01*
G37*
D02*
G36*
X40Y118D02*
X40Y68D01*
X2090Y68D01*
X2090Y70D01*
X2086Y70D01*
X2086Y72D01*
X2082Y72D01*
X2082Y74D01*
X2080Y74D01*
X2080Y76D01*
X2078Y76D01*
X2078Y80D01*
X2076Y80D01*
X2076Y82D01*
X2074Y82D01*
X2074Y86D01*
X2072Y86D01*
X2072Y88D01*
X2070Y88D01*
X2070Y90D01*
X2068Y90D01*
X2068Y94D01*
X2066Y94D01*
X2066Y96D01*
X2064Y96D01*
X2064Y100D01*
X2062Y100D01*
X2062Y102D01*
X2060Y102D01*
X2060Y104D01*
X2058Y104D01*
X2058Y108D01*
X2056Y108D01*
X2056Y110D01*
X2054Y110D01*
X2054Y114D01*
X2052Y114D01*
X2052Y116D01*
X2050Y116D01*
X2050Y118D01*
X40Y118D01*
G37*
D02*
G36*
X40Y68D02*
X40Y66D01*
X2746Y66D01*
X2746Y68D01*
X40Y68D01*
G37*
D02*
G36*
X40Y68D02*
X40Y66D01*
X2746Y66D01*
X2746Y68D01*
X40Y68D01*
G37*
D02*
G36*
X40Y66D02*
X40Y40D01*
X2746Y40D01*
X2746Y66D01*
X40Y66D01*
G37*
D02*
G04 End of Copper0*
M02*