; NON-PLATED HOLES START AT T1
; THROUGH (PLATED) HOLES START AT T100
M48
INCH
T1C0.064972
T100C0.051056
T101C0.040278
T102C0.059055
T103C0.035000
T104C0.051083
T105C0.035433
%
T1
X001452Y005619
T100
X015350Y007776
X015350Y005776
X015350Y006776
X015350Y008776
T101
X018452Y001619
X025452Y020619
X015452Y001619
X016851Y020619
X024452Y001619
X009852Y020619
X010852Y020619
X011452Y001619
X021452Y020619
X011852Y020619
X020452Y020619
X007851Y020619
X022451Y001619
X023452Y001619
X015852Y020619
X019452Y020619
X017451Y001619
X021452Y001619
X016452Y001619
X012452Y001619
X014452Y001619
X024452Y020619
X013852Y020619
X018452Y020619
X025452Y001619
X008852Y020619
X013452Y001619
X023452Y020619
X012852Y020619
X014852Y020619
X022451Y020619
X020452Y001619
T102
X007452Y002619
X019452Y017619
X009452Y002619
T103
X009452Y015619
X022332Y007603
X023011Y014390
X023011Y012619
X024452Y006619
X009452Y012619
X005452Y012619
X020452Y014390
X005452Y015619
X022332Y005634
X020452Y012619
T104
X001452Y005619
X001452Y007619
X001452Y009619
X001452Y008619
X001452Y004619
X001452Y006619
T105
X015452Y012619
X013877Y012619
T00
M30
