G04 MADE WITH FRITZING*
G04 WWW.FRITZING.ORG*
G04 DOUBLE SIDED*
G04 HOLES PLATED*
G04 CONTOUR ON CENTER OF CONTOUR VECTOR*
%ASAXBY*%
%FSLAX23Y23*%
%MOIN*%
%OFA0B0*%
%SFA1.0B1.0*%
%ADD10C,0.075278*%
%ADD11C,0.085000*%
%ADD12C,0.084000*%
%ADD13C,0.088861*%
%ADD14C,0.088833*%
%ADD15C,0.108425*%
%ADD16R,0.085000X0.085000*%
%LNMASK1*%
G90*
G70*
G54D10*
X2244Y122D03*
X2344Y122D03*
X2444Y122D03*
X2544Y122D03*
X2644Y122D03*
X1784Y2022D03*
X1684Y2022D03*
X1584Y2022D03*
X1484Y2022D03*
X1384Y2022D03*
X1284Y2022D03*
X1184Y2022D03*
X1084Y2022D03*
X984Y2022D03*
X884Y2022D03*
X2644Y2022D03*
X2544Y2022D03*
X2444Y2022D03*
X2344Y2022D03*
X2244Y2022D03*
X2144Y2022D03*
X2044Y2022D03*
X1944Y2022D03*
X1344Y122D03*
X1244Y122D03*
X1444Y122D03*
X1544Y122D03*
X1644Y122D03*
X1744Y122D03*
X1844Y122D03*
X1944Y122D03*
X2144Y122D03*
G54D11*
X2400Y1222D03*
X2144Y1222D03*
X2400Y1399D03*
X2144Y1399D03*
G54D12*
X1487Y1222D03*
X1644Y1222D03*
X1487Y1222D03*
X1644Y1222D03*
G54D11*
X2332Y721D03*
X2544Y622D03*
X2332Y524D03*
G54D13*
X244Y422D03*
X244Y522D03*
X244Y622D03*
X244Y722D03*
X244Y822D03*
X244Y922D03*
G54D14*
X1634Y538D03*
X1634Y638D03*
X1634Y738D03*
X1634Y838D03*
G54D11*
X644Y1522D03*
X1044Y1522D03*
X644Y1222D03*
X1044Y1222D03*
G54D15*
X2044Y1722D03*
X1044Y222D03*
X844Y222D03*
G54D16*
X2332Y721D03*
G04 End of Mask1*
M02*