G04 MADE WITH FRITZING*
G04 WWW.FRITZING.ORG*
G04 DOUBLE SIDED*
G04 HOLES PLATED*
G04 CONTOUR ON CENTER OF CONTOUR VECTOR*
%ASAXBY*%
%FSLAX23Y23*%
%MOIN*%
%OFA0B0*%
%SFA1.0B1.0*%
%ADD10C,0.065278*%
%ADD11C,0.075000*%
%ADD12C,0.074000*%
%ADD13C,0.078861*%
%ADD14C,0.078833*%
%ADD15C,0.098425*%
%ADD16R,0.075000X0.075000*%
%ADD17C,0.024000*%
%LNCOPPER1*%
G90*
G70*
G54D10*
X2244Y122D03*
X2344Y122D03*
X2444Y122D03*
X2544Y122D03*
X2644Y122D03*
X1784Y2022D03*
X1684Y2022D03*
X1584Y2022D03*
X1484Y2022D03*
X1384Y2022D03*
X1284Y2022D03*
X1184Y2022D03*
X1084Y2022D03*
X984Y2022D03*
X884Y2022D03*
X2644Y2022D03*
X2544Y2022D03*
X2444Y2022D03*
X2344Y2022D03*
X2244Y2022D03*
X2144Y2022D03*
X2044Y2022D03*
X1944Y2022D03*
X1344Y122D03*
X1244Y122D03*
X1444Y122D03*
X1544Y122D03*
X1644Y122D03*
X1744Y122D03*
X1844Y122D03*
X1944Y122D03*
X2144Y122D03*
G54D11*
X2400Y1222D03*
X2144Y1222D03*
X2400Y1399D03*
X2144Y1399D03*
G54D12*
X1487Y1222D03*
X1644Y1222D03*
X1487Y1222D03*
X1644Y1222D03*
G54D11*
X2332Y721D03*
X2544Y622D03*
X2332Y524D03*
G54D13*
X244Y422D03*
X244Y522D03*
X244Y622D03*
X244Y722D03*
X244Y822D03*
X244Y922D03*
G54D14*
X1634Y538D03*
X1634Y638D03*
X1634Y738D03*
X1634Y838D03*
G54D11*
X644Y1522D03*
X1044Y1522D03*
X644Y1222D03*
X1044Y1222D03*
G54D15*
X2044Y1722D03*
X1044Y222D03*
X844Y222D03*
G54D16*
X2332Y721D03*
G54D17*
X2044Y2002D02*
X2044Y1752D01*
D02*
X1612Y526D02*
X1070Y236D01*
D02*
X1612Y626D02*
X871Y236D01*
D02*
X1059Y1512D02*
X1472Y1232D01*
D02*
X1625Y662D02*
X1620Y674D01*
X1620Y674D02*
X1572Y674D01*
X1572Y674D02*
X1572Y1154D01*
X1572Y1154D02*
X1632Y1210D01*
D02*
X1061Y1218D02*
X1444Y1125D01*
D02*
X1444Y1125D02*
X1572Y1154D01*
D02*
X2347Y534D02*
X2412Y578D01*
X2412Y578D02*
X2401Y1205D01*
D02*
X644Y1240D02*
X644Y1505D01*
D02*
X1170Y2009D02*
X657Y1534D01*
D02*
X1642Y514D02*
X1644Y506D01*
X1644Y506D02*
X1739Y142D01*
D02*
X2316Y715D02*
X1692Y482D01*
X1692Y482D02*
X1653Y520D01*
D02*
X1653Y756D02*
X2064Y1154D01*
X2064Y1154D02*
X2100Y1298D01*
X2100Y1298D02*
X2460Y1298D01*
X2460Y1298D02*
X2460Y1154D01*
X2460Y1154D02*
X2436Y1154D01*
X2436Y1154D02*
X2460Y530D01*
X2460Y530D02*
X2412Y530D01*
X2412Y530D02*
X2388Y458D01*
X2388Y458D02*
X2443Y323D01*
D02*
X2443Y323D02*
X2508Y194D01*
X2508Y194D02*
X2535Y140D01*
D02*
X1650Y858D02*
X2100Y1466D01*
X2100Y1466D02*
X2460Y1466D01*
X2460Y1466D02*
X2508Y1370D01*
X2508Y1370D02*
X2604Y698D01*
X2604Y698D02*
X2643Y142D01*
G04 End of Copper1*
M02*