; NON-PLATED HOLES START AT T1
; THROUGH (PLATED) HOLES START AT T100
M48
INCH
T1C0.064972
T100C0.051056
T101C0.035000
T102C0.035433
T103C0.059055
T104C0.040278
T105C0.051083
%
T1
X002444Y005222
T100
X016343Y008379
X016343Y005379
X016343Y006379
X016343Y007379
T101
X021444Y013993
X021444Y012222
X023324Y007206
X010444Y012222
X006444Y015222
X023324Y005238
X025444Y006222
X024003Y012222
X010444Y015222
X006444Y012222
X024003Y013993
T102
X016444Y012222
X014869Y012222
T103
X020444Y017222
X008444Y002222
X010444Y002222
T104
X026444Y020222
X012444Y001222
X015844Y020222
X025444Y001222
X014444Y001222
X019444Y001222
X023444Y001222
X011844Y020222
X009844Y020222
X021444Y001222
X020444Y020222
X013844Y020222
X016444Y001222
X022444Y020222
X024444Y020222
X017844Y020222
X021444Y020222
X017444Y001222
X019444Y020222
X023444Y020222
X010844Y020222
X025444Y020222
X016844Y020222
X026444Y001222
X013444Y001222
X008844Y020222
X024444Y001222
X018444Y001222
X014844Y020222
X022444Y001222
X015444Y001222
X012844Y020222
T105
X002444Y004222
X002444Y008222
X002444Y009222
X002444Y006222
X002444Y005222
X002444Y007222
T00
M30
